<svg width="1440" height="900" viewBox="0 0 1440 900" fill="none" xmlns="http://www.w3.org/2000/svg">
<g id="Albertsons-final" clip-path="url(#clip0_7_109)">
<rect width="1440" height="900" fill="white"/>
<g id="stem-1">
<path id="stem-one" d="M712.487 850C719.099 868.55 722.497 888.458 716.987 899.5H728.558C731.314 886.802 722.773 863.25 716.987 850C707.599 828.5 716.987 778 716.987 778C714.232 780.208 705.875 831.45 712.487 850Z" fill="#133510"/>
</g>
<g id="stem-2">
<path id="stem-two" d="M705.415 776.842C712.896 802.403 718.308 868.533 705.415 900H725.206C731.652 863.813 730.743 814.602 717.206 776.842C696.291 718.5 746.706 657.5 705.415 577C733.706 653.5 689.944 723.977 705.415 776.842Z" fill="#133510"/>
</g>
<g id="stem-3">
<g id="leaf-1">
<path d="M731 690C731 689.583 740.841 659.286 753.149 656.009C753.149 656.009 756.374 655.442 762.85 663.546C766.382 668.144 770.737 671.951 775.663 674.747L779 679.007C770.751 676.673 762.099 676.453 753.754 678.364C745.41 680.275 737.612 684.263 731 690Z" fill="#133510"/>
<path d="M835 682C828.458 679.216 821.28 678.228 814.22 679.137C814.22 679.137 782.775 680.397 776.647 678.307C773.452 677.125 770.56 675.258 768.179 672.839C766.705 671.408 765.289 669.976 763.584 668.717C758.727 664.911 754.184 660.728 750 656.206C777.948 649.708 825.145 674.242 827.832 675.616C785.173 648.448 751.156 653.687 751.156 653.687C758.468 651.254 780.058 644.87 789.711 649.851C794.789 652.644 800.362 654.442 806.127 655.147C808.56 655.336 810.939 655.957 813.15 656.979C827.312 663.879 835 682 835 682Z" fill="#133510"/>
</g>
<path id="leaf-2" d="M697.917 558.315C692.459 517.549 665.168 474.699 665.168 474.699C677.381 497.75 686.568 522.55 692.459 548.377C692.487 548.656 692.425 548.937 692.285 549.173C692.145 549.409 691.935 549.586 691.69 549.673C691.445 549.76 691.18 549.753 690.939 549.653C690.698 549.553 690.496 549.366 690.366 549.123C681.177 533.789 668.264 523.369 661.202 503.465C652.106 478.681 648.831 437.811 648.831 437.811C654.316 448.355 681.61 472.372 681.61 472.372C718.618 511.928 700.246 553.562 697.917 558.315Z" fill="#133510"/>
<path id="stem-three" d="M710.406 669.796C721.677 735.102 710.087 858.786 700 900H721.182C726.225 852.604 738.211 733.04 721.182 654.286C700 556.327 753.515 479.592 706.642 340C739.145 468.98 691.385 559.592 710.406 669.796Z" fill="#133510"/>
</g>
<g id="stem-4">
<path id="stem-four" d="M716.406 593.746C727.677 680.627 716.087 845.171 706 900H727.182C732.225 836.947 744.211 677.883 727.182 573.112C706 442.792 759.515 340.707 712.642 155C745.145 326.589 697.385 447.136 716.406 593.746Z" fill="#133510"/>
<path id="stem-five" d="M716.406 593.746C727.677 680.627 716.087 845.171 706 900H727.182C732.225 836.947 744.211 677.883 727.182 573.112C706 442.792 759.515 340.707 712.642 155C745.145 326.589 697.385 447.136 716.406 593.746Z" fill="white" stroke="white" stroke-width="3"/>
<path id="leaf-3" d="M617.5 335.5C626.3 357.9 660.833 393.5 677 408.5C667 354.9 637.167 309.167 623.5 293C652.3 315 679.5 387.833 689.5 421.5C697.1 391.9 698 376.5 697.5 372.5C698.7 324.1 626.333 261.333 590 236C595 270.5 606.5 307.5 617.5 335.5Z" fill="#133510"/>
<path id="leaf-2_2" d="M402 268.649C402 268.649 473.704 490.108 613.561 472.2C613.561 472.2 496.35 374.754 476.269 351.539C476.269 351.539 599.355 469.449 687.647 481.477C687.647 481.477 661.615 422.457 605.289 403.224C548.963 383.992 567.774 345.743 509.331 324.203C450.888 302.662 429.421 297.402 402 268.649Z" fill="#133510"/>
<path id="leaf-1_2" d="M839 428.955C792.2 428.155 759.667 492.121 752 522.455C786 489.955 828.209 498.029 865.5 490.455C897.5 483.955 934.597 510.959 962 501.955C997 490.455 1038 496.621 1064 501.955C1037.6 452.355 1012 435.455 987 432.455C962 432.455 962.4 429.655 932 418.455C901.6 407.255 845.333 419.788 821 427.455C906.2 413.855 1011 463.955 1044.5 490.455C970 442.455 897.5 429.955 839 428.955Z" fill="#133510"/>
</g>
<g id="final-logo">
<path id="abt-circle" d="M720.494 844.988C938.367 844.988 1114.99 668.367 1114.99 450.494C1114.99 232.621 938.367 56 720.494 56C502.621 56 326 232.621 326 450.494C326 668.367 502.621 844.988 720.494 844.988Z" fill="#CCDE8E"/>
<path id="A" d="M904.469 585.882C897.733 580.482 892.484 573.455 889.218 565.463L872.55 527.043L749.955 235.558H739.412L632.778 490.248C625.027 508.444 620.694 518.903 619.777 521.626C608.665 550.323 599.094 569.13 591.066 578.048C583.037 586.965 570.953 592.688 554.813 595.216V607.717H663.864V595.216C653.606 595.718 643.474 592.785 635.07 586.882C631.313 583.937 628.33 580.121 626.377 575.765C624.424 571.409 623.56 566.644 623.86 561.88C623.86 551.629 630.889 529.627 644.946 495.873L654.405 472.58L659.572 460.412L724.244 303.981L789.209 460.412L793.793 472.58L821.92 540.503C830.254 560.171 834.421 572.005 834.421 575.964C834.749 579.22 834.018 582.495 832.336 585.303C830.655 588.111 828.113 590.301 825.087 591.549C818.837 594.133 806.919 595.424 789.251 595.424V607.925H933.472V595.424C920.513 593.966 910.886 590.924 904.469 585.882Z" fill="#133510"/>
<path id="leaf-3_2" d="M614.358 404.306C615.9 416.441 628.541 438.336 634.669 447.767C636.461 420.134 627.428 393.851 622.687 384.164C634.197 398.642 638.512 437.92 639.23 455.749C646.728 442.155 649.114 434.695 649.37 432.664C656.061 409.011 628.08 368.949 613.253 351.875C611.387 369.478 612.43 389.137 614.358 404.306Z" fill="#133510"/>
<path id="leaf-2_3" d="M534.227 351.61C534.227 351.61 536.019 454.578 600.358 465.078C600.358 465.078 561.647 408.698 555.896 396.28C555.896 396.28 594.441 462.078 631.903 478.58C631.903 478.58 628.361 450.244 606.025 434.826C583.69 419.408 597.191 405.656 574.231 388.988C551.27 372.32 542.478 367.32 534.227 351.61Z" fill="#133510"/>
<path id="leaf-1_3" d="M690.897 472.833C668.106 472.446 652.263 503.364 648.53 518.026C665.087 502.317 685.642 506.22 703.801 502.559C719.384 499.417 737.45 512.47 750.794 508.118C767.838 502.559 787.804 505.54 800.465 508.118C787.609 484.143 775.143 475.974 762.969 474.524C750.794 474.524 750.989 473.171 736.185 467.757C721.381 462.344 693.981 468.402 682.131 472.107C723.621 465.534 774.656 489.75 790.969 502.559C754.69 479.358 719.384 473.316 690.897 472.833Z" fill="#133510"/>
<g id="market">
<path d="M704.243 779.233L722.702 743.813L736.662 744.563V746.063H734.995C733.518 745.861 732.016 745.961 730.578 746.355C730.203 746.545 729.874 746.816 729.615 747.147C729.356 747.478 729.173 747.862 729.078 748.272C728.625 750.551 728.374 752.866 728.328 755.189L727.203 776.691C727.047 778.953 727.047 781.222 727.203 783.483C727.232 783.957 727.357 784.42 727.572 784.843C727.787 785.266 728.087 785.64 728.453 785.942C729.731 786.633 731.167 786.977 732.62 786.942H734.62V788.4L712.951 787.234V785.775H714.577C715.986 785.967 717.42 785.795 718.744 785.275C719.133 785.035 719.469 784.72 719.734 784.348C719.999 783.976 720.186 783.554 720.286 783.108C720.715 780.812 720.952 778.485 720.994 776.149L722.494 748.188L702.034 786.775H700.45L684.449 746.438L683.074 772.149C682.882 774.534 682.882 776.931 683.074 779.316C683.252 780.672 683.919 781.916 684.949 782.817C686.316 783.919 687.989 784.574 689.741 784.692V786.192L673.531 785.317V783.817C675.223 783.883 676.895 783.432 678.324 782.525C679.525 781.801 680.393 780.634 680.74 779.275C681.218 776.83 681.483 774.348 681.532 771.857L682.574 752.772C682.745 750.511 682.745 748.241 682.574 745.98C682.539 745.549 682.409 745.13 682.193 744.756C681.976 744.381 681.68 744.059 681.324 743.813C679.928 743.223 678.421 742.939 676.906 742.98H675.657V741.521L689.491 742.23L704.243 779.233Z" fill="#133510"/>
<path d="M808.669 759.772L792 763.939L791.542 766.939C790.917 769.67 790.707 772.479 790.917 775.273C791.027 775.841 791.275 776.374 791.638 776.824C792.001 777.274 792.469 777.629 793.001 777.857C794.204 778.257 795.505 778.257 796.709 777.857L797.085 779.315L783.958 782.565L783.625 781.149C785.218 780.59 786.571 779.501 787.459 778.065C788.44 775.699 789.058 773.198 789.292 770.648C789.292 770.273 789.542 768.939 789.917 766.481L795.334 733.686L796.626 733.353L819.837 763.522L822.962 767.481C823.581 768.325 824.415 768.987 825.379 769.398C826.606 769.733 827.901 769.733 829.129 769.398L829.504 770.856L812.128 775.023L811.794 773.565C813.251 773.28 814.657 772.774 815.961 772.064C816.276 771.831 816.51 771.504 816.63 771.13C816.749 770.756 816.749 770.354 816.628 769.981C815.934 768.633 815.081 767.374 814.086 766.231L808.669 759.772ZM807.794 758.48L795.293 742.27L792.084 762.397L807.794 758.48Z" fill="#133510"/>
<path d="M917.095 728.728L906.469 734.812C901.462 733.823 896.621 732.125 892.092 729.77C889.842 728.769 887.634 727.853 885.383 727.019C883.957 726.435 882.478 725.988 880.966 725.686C880.018 725.718 879.097 726.006 878.3 726.519L876.716 727.436L881.591 735.77C882.665 737.76 883.862 739.68 885.175 741.521C885.44 741.91 885.786 742.238 886.188 742.482C886.591 742.727 887.041 742.882 887.509 742.937C889.008 742.892 890.46 742.399 891.676 741.521L893.592 740.437L894.343 741.729L875.424 752.563L874.716 751.271L875.966 750.521C877.234 749.941 878.327 749.035 879.133 747.896C879.321 747.484 879.418 747.036 879.418 746.583C879.418 746.131 879.321 745.683 879.133 745.271C878.219 743.124 877.146 741.049 875.924 739.062L865.215 720.352C864.138 718.356 862.926 716.434 861.59 714.601C861.319 714.259 860.978 713.977 860.59 713.776C860.202 713.575 859.776 713.459 859.339 713.435C857.847 713.731 856.429 714.327 855.172 715.185L854.506 715.56L853.756 714.268L859.256 710.768C862.923 708.434 865.84 706.601 868.048 705.351C871.115 703.567 874.391 702.167 877.8 701.184C880.298 700.515 882.927 700.515 885.425 701.184C887.691 701.82 889.62 703.315 890.801 705.351C891.494 706.551 891.923 707.886 892.059 709.266C892.196 710.645 892.037 712.038 891.592 713.351C890.341 716.669 888.064 719.501 885.092 721.435C889.536 721.898 893.857 723.168 897.843 725.186C901.458 726.881 905.284 728.087 909.219 728.77C911.708 728.983 914.205 728.446 916.386 727.228L917.095 728.728ZM875.966 726.144L880.383 723.394C881.739 722.567 882.984 721.573 884.091 720.435C884.956 719.583 885.613 718.542 886.009 717.393C886.339 716.258 886.424 715.064 886.258 713.893C885.962 712.42 885.412 711.01 884.633 709.726C883.404 707.331 881.346 705.464 878.841 704.476C875.123 703.985 871.362 704.989 868.382 707.267L866.007 708.768L875.966 726.144Z" fill="#133510"/>
<path d="M950.849 672.889L951.807 654.513C951.807 650.346 951.807 647.721 950.849 646.887C949.89 646.054 947.765 646.137 945.473 648.387L944.39 647.345L956.308 634.844L957.391 635.886C956.387 636.949 955.595 638.194 955.057 639.553C954.498 640.886 954.12 642.287 953.932 643.72C953.932 645.22 953.599 648.137 953.474 652.471L953.057 663.555L976.851 662.847C980.341 662.876 983.827 662.597 987.268 662.014C988.976 661.498 990.506 660.517 991.686 659.18L992.769 660.18L976.351 677.182L975.309 676.182L975.934 675.515C977.155 674.44 978.135 673.119 978.81 671.639C978.884 671.339 978.88 671.025 978.8 670.726C978.72 670.428 978.566 670.154 978.351 669.931C975.868 669.049 973.202 668.805 970.6 669.222L952.682 669.764L952.39 673.931L958.183 679.515C959.783 681.119 961.481 682.622 963.266 684.016C963.633 684.304 964.056 684.513 964.508 684.628C964.961 684.742 965.432 684.761 965.891 684.682C967.264 684.226 968.469 683.37 969.35 682.224L969.976 681.599L971.059 682.64L956.849 697.35L955.808 696.308L956.766 695.308C957.821 694.394 958.612 693.214 959.058 691.891C959.142 691.444 959.134 690.983 959.034 690.539C958.933 690.095 958.743 689.676 958.475 689.308C956.984 687.502 955.369 685.803 953.641 684.224L938.098 669.264C936.498 667.587 934.756 666.054 932.889 664.681C932.537 664.447 932.139 664.292 931.721 664.227C931.304 664.163 930.878 664.189 930.472 664.305C929.034 665.098 927.761 666.159 926.722 667.431L925.638 666.389L939.598 651.929L940.681 652.971L940.098 653.555C939.001 654.563 938.097 655.763 937.431 657.096C937.338 657.503 937.331 657.923 937.41 658.332C937.489 658.741 937.652 659.129 937.889 659.472C939.328 661.296 940.917 662.996 942.64 664.555L950.849 672.889Z" fill="#133510"/>
<path d="M1026.69 579.923L1027.44 578.506L1039.11 585.715L1021.56 619.051L1020.23 618.385L1020.69 617.551C1021.52 616.322 1021.96 614.868 1021.94 613.384C1021.74 612.528 1021.25 611.765 1020.56 611.217C1018.64 609.886 1016.64 608.675 1014.56 607.592L995.52 597.55C993.58 596.482 991.576 595.535 989.519 594.716C989.109 594.546 988.671 594.459 988.227 594.459C987.784 594.459 987.345 594.546 986.935 594.716C985.827 595.686 984.957 596.898 984.394 598.258L983.06 597.55L998.186 568.797L1008.4 572.964L1007.65 574.339C1005.39 573.607 1003 573.366 1000.65 573.631C999.144 573.889 997.776 574.654 996.77 575.797C995.345 577.622 994.116 579.592 993.102 581.673L990.186 587.257L1006.48 595.841L1008.73 591.674C1009.54 590.328 1010.11 588.845 1010.4 587.299C1010.47 586.894 1010.45 586.479 1010.34 586.083C1010.23 585.687 1010.04 585.319 1009.77 585.007C1008.69 584.01 1007.45 583.194 1006.1 582.59L1006.81 581.215L1020.15 588.215L1019.4 589.59C1017.98 588.719 1016.41 588.139 1014.77 587.882C1014.34 587.867 1013.92 587.937 1013.52 588.087C1013.12 588.237 1012.75 588.465 1012.44 588.757C1011.56 589.834 1010.8 591.008 1010.19 592.257L1007.85 596.674L1017.06 601.508C1019.65 603.256 1022.6 604.409 1025.69 604.883C1026.81 604.883 1028.11 603.258 1029.52 600.716L1031.11 597.758C1032.08 595.994 1032.74 594.078 1033.06 592.091C1033.18 590.154 1032.77 588.221 1031.86 586.507C1030.61 583.974 1028.85 581.731 1026.69 579.923Z" fill="#133510"/>
<path d="M1024.98 527.793L1024.69 529.293L1014.4 527.001L1022.73 483.706L1033.15 485.539L1032.9 486.956C1030.67 486.803 1028.43 487.101 1026.31 487.831C1025.12 488.259 1024.1 489.082 1023.44 490.165C1022.75 491.795 1022.26 493.502 1021.98 495.248L1020.56 502.416L1050.98 508.458C1053.19 508.955 1055.43 509.317 1057.69 509.541C1058.17 509.584 1058.64 509.528 1059.1 509.378C1059.55 509.227 1059.96 508.985 1060.32 508.666C1061.17 507.522 1061.7 506.169 1061.86 504.749L1062.32 502.541L1063.78 502.832L1059.36 525.085L1057.9 524.793L1058.36 522.501C1058.72 521.136 1058.72 519.699 1058.36 518.334C1058.17 517.917 1057.91 517.541 1057.58 517.226C1057.25 516.911 1056.87 516.665 1056.44 516.5C1054.23 515.76 1051.96 515.202 1049.65 514.834L1019.19 508.791L1017.9 515.417C1017.42 517.34 1017.17 519.312 1017.15 521.292C1017.36 522.558 1018.01 523.708 1018.98 524.543C1020.74 526.017 1022.78 527.122 1024.98 527.793Z" fill="#133510"/>
</g>
<g id="food">
<path d="M424.467 508.792L413.633 510.459V508.875C415.705 508.41 417.635 507.453 419.258 506.083C420.49 505.16 421.384 503.857 421.8 502.375C422.059 500.369 422.059 498.338 421.8 496.332L420.758 487.498L402.257 489.707L402.757 493.874C402.767 495.808 403.477 497.673 404.757 499.124C406.437 500.037 408.394 500.304 410.257 499.874L410.466 501.499L395.09 503.333V501.666C396.527 501.524 397.932 501.159 399.257 500.583C400.152 500.192 400.866 499.478 401.257 498.583C401.57 497.085 401.57 495.538 401.257 494.04L400.757 489.873L389.922 491.165C387.666 491.391 385.426 491.753 383.213 492.249C382.752 492.35 382.317 492.547 381.937 492.827C381.556 493.107 381.239 493.464 381.005 493.874C380.558 495.217 380.472 496.654 380.755 498.041V499.541H379.255L376.755 478.706H378.255V480.081C378.287 481.546 378.688 482.979 379.421 484.248C379.72 484.591 380.084 484.87 380.491 485.071C380.899 485.271 381.343 485.388 381.797 485.415C384.155 485.418 386.509 485.237 388.839 484.873L410.216 482.331C412.478 482.133 414.722 481.757 416.925 481.206C417.336 481.101 417.72 480.91 418.051 480.644C418.382 480.378 418.651 480.044 418.842 479.664C419.161 478.167 419.161 476.619 418.842 475.122V474.33H420.3L424.467 508.792Z" fill="#133510"/>
<path d="M414.508 556.254C417.256 554.862 420.282 554.105 423.362 554.04C426.442 553.975 429.497 554.604 432.301 555.88C438.11 558.599 442.7 563.381 445.177 569.297C448.058 575.099 448.711 581.756 447.011 588.007C446.118 591.008 444.56 593.768 442.454 596.084C440.347 598.4 437.746 600.211 434.843 601.384C432.086 602.773 429.06 603.548 425.974 603.656C422.888 603.764 419.815 603.202 416.967 602.008C411.144 599.111 406.493 594.302 403.792 588.385C401.092 582.468 400.506 575.803 402.132 569.506C403.108 566.53 404.721 563.803 406.858 561.515C408.996 559.226 411.606 557.431 414.508 556.254ZM417.467 563.338C412.222 565.329 407.813 569.048 404.966 573.881C403.983 576.134 403.529 578.582 403.637 581.037C403.745 583.493 404.414 585.891 405.591 588.049C406.445 590.183 407.781 592.09 409.494 593.623C411.207 595.155 413.251 596.271 415.466 596.883C421.009 597.993 426.765 597.107 431.718 594.383C436.943 592.38 441.345 588.682 444.219 583.882C445.103 581.684 445.534 579.33 445.485 576.962C445.437 574.593 444.91 572.259 443.937 570.099C442.964 567.939 441.565 565.998 439.823 564.392C438.081 562.787 436.033 561.549 433.802 560.755C428.222 559.683 422.443 560.597 417.467 563.338Z" fill="#133510"/>
<path d="M462.596 642.137C464.763 639.973 467.38 638.314 470.261 637.277C473.142 636.24 476.216 635.85 479.264 636.136C485.709 636.809 491.662 639.889 495.932 644.762C500.489 649.342 503.203 655.438 503.558 661.889C503.687 665.035 503.102 668.168 501.846 671.055C500.591 673.942 498.697 676.507 496.307 678.557C494.131 680.723 491.52 682.403 488.647 683.488C485.774 684.572 482.704 685.036 479.639 684.849C473.2 683.941 467.267 680.851 462.83 676.096C458.394 671.341 455.723 665.209 455.262 658.722C455.206 655.591 455.832 652.485 457.099 649.62C458.366 646.756 460.241 644.202 462.596 642.137ZM467.68 647.887C463.277 651.463 460.22 656.43 459.012 661.972C458.79 664.416 459.133 666.879 460.014 669.17C460.896 671.46 462.293 673.517 464.096 675.182C465.585 676.933 467.457 678.317 469.567 679.228C471.677 680.138 473.969 680.55 476.264 680.432C481.873 679.71 487.049 677.04 490.89 672.89C495.168 669.314 498.107 664.393 499.224 658.93C499.503 656.54 499.222 654.118 498.405 651.855C497.588 649.591 496.257 647.549 494.516 645.887C493.001 644.062 491.084 642.612 488.915 641.65C486.746 640.689 484.385 640.242 482.014 640.345C476.514 641.145 471.455 643.808 467.68 647.887Z" fill="#133510"/>
<path d="M544.104 689.141L550.729 692.558C556.272 695.433 560.022 697.392 561.897 698.475C566.725 700.966 570.895 704.565 574.065 708.976C576.23 712.311 577.36 716.21 577.315 720.186C577.132 724.284 575.913 728.269 573.773 731.77C572.307 734.404 570.373 736.748 568.064 738.687C566.04 740.379 563.683 741.628 561.147 742.354C558.77 742.991 556.288 743.133 553.855 742.771C551.586 742.464 549.371 741.847 547.271 740.937C545.396 740.104 542.771 738.729 539.52 736.77L522.06 726.644L522.81 725.353L524.436 726.311C525.588 727.101 526.921 727.588 528.311 727.728C528.762 727.698 529.202 727.574 529.603 727.366C530.005 727.159 530.359 726.87 530.644 726.519C532.069 724.655 533.338 722.676 534.437 720.602L545.062 702.267C546.256 700.335 547.301 698.316 548.188 696.225C548.367 695.833 548.461 695.406 548.461 694.975C548.461 694.543 548.367 694.117 548.188 693.725C547.186 692.591 545.968 691.67 544.604 691.016L543.437 690.349L544.104 689.141ZM555.772 696.933L541.062 722.352C538.895 726.103 537.506 728.561 536.895 729.728C536.647 730.197 536.517 730.719 536.517 731.249C536.517 731.779 536.647 732.301 536.895 732.77C538.012 734.184 539.437 735.324 541.062 736.104C543.883 737.85 547.007 739.052 550.271 739.646C553.321 739.915 556.374 739.151 558.939 737.479C562.411 735.24 565.274 732.177 567.273 728.561C569.002 725.659 570.241 722.491 570.94 719.186C571.597 716.446 571.597 713.591 570.94 710.851C570.334 708.497 569.145 706.332 567.481 704.559C565.368 702.467 562.969 700.685 560.355 699.267C558.855 698.517 557.314 697.725 555.772 696.933Z" fill="#133510"/>
</g>
<g id="Albertsons">
<path d="M429.717 334.192L423.383 350.235L425.633 352.402C427.577 354.522 429.807 356.359 432.259 357.861C432.788 358.132 433.373 358.273 433.967 358.273C434.561 358.273 435.147 358.132 435.676 357.861C436.744 357.153 437.549 356.114 437.968 354.902L439.384 355.486L434.426 367.987L433.009 367.404C433.489 365.763 433.371 364.006 432.675 362.445C431.249 360.232 429.493 358.251 427.467 356.569L424.467 353.652L399.964 329.775L400.423 328.525L439.593 327.692H444.802C445.872 327.688 446.921 327.401 447.844 326.858C448.9 326.143 449.737 325.147 450.261 323.983L451.677 324.567L445.093 341.235L443.677 340.651C444.295 339.337 444.689 337.929 444.843 336.484C444.845 336.08 444.71 335.687 444.46 335.37C444.211 335.052 443.861 334.828 443.468 334.734C441.933 334.537 440.378 334.537 438.843 334.734L429.717 334.192ZM428.092 334.192L407.257 334.567L422.341 349.152L428.092 334.192Z" fill="#133510"/>
<path d="M484.14 251.559L494.599 259.893L471.263 290.688L470.055 289.771L470.847 288.688C471.769 287.641 472.413 286.381 472.722 285.021C472.739 284.082 472.396 283.172 471.763 282.479C470.002 280.803 468.122 279.257 466.138 277.853L448.386 264.394C446.551 262.94 444.616 261.617 442.594 260.435C442.219 260.197 441.794 260.051 441.353 260.008C440.911 259.964 440.466 260.025 440.052 260.185C438.751 260.995 437.653 262.093 436.843 263.394L436.26 264.186L435.01 263.227L448.178 245.851L449.428 246.767L448.22 248.351C447.218 249.472 446.465 250.792 446.011 252.226C445.962 252.649 446.007 253.078 446.144 253.482C446.281 253.885 446.506 254.254 446.803 254.56C448.509 256.247 450.349 257.793 452.303 259.185L471.305 273.561C472.915 274.846 474.614 276.015 476.389 277.062C476.767 277.237 477.18 277.328 477.597 277.328C478.015 277.328 478.427 277.237 478.806 277.062C480.256 276.105 481.49 274.856 482.431 273.395L484.514 270.644C485.862 269.026 486.932 267.195 487.681 265.227C488.089 263.572 488.002 261.833 487.431 260.227C486.476 257.535 485.067 255.026 483.264 252.809L484.14 251.559Z" fill="#133510"/>
<path d="M525.435 198.596C528.713 196.021 532.728 194.56 536.895 194.429C538.454 194.486 539.981 194.889 541.365 195.61C542.749 196.331 543.955 197.351 544.895 198.596C546.583 200.693 547.469 203.323 547.396 206.014C547.319 208.651 546.365 211.187 544.687 213.223C542.356 215.926 539.728 218.358 536.853 220.473L522.685 231.349L521.768 230.141L523.143 229.057C524.315 228.307 525.265 227.257 525.893 226.015C526.04 225.576 526.09 225.11 526.04 224.65C525.989 224.19 525.84 223.746 525.602 223.348C524.378 221.251 522.985 219.258 521.435 217.39L507.934 199.846C506.536 197.909 504.99 196.084 503.308 194.388C502.997 194.067 502.62 193.818 502.202 193.66C501.784 193.501 501.337 193.437 500.891 193.471C499.432 193.915 498.093 194.684 496.974 195.721L496.308 196.263L495.349 195.013L501.141 190.304L507.767 184.887C517.601 177.303 524.699 176.344 529.06 182.011C529.925 183.051 530.536 184.277 530.847 185.593C531.158 186.909 531.16 188.279 530.852 189.595C529.941 193.051 528.062 196.173 525.435 198.596ZM518.518 203.097L519.685 202.263C522.647 200.441 524.92 197.685 526.143 194.429C526.309 193.085 526.178 191.721 525.76 190.432C525.343 189.144 524.649 187.962 523.727 186.97C522.656 185.417 521.226 184.145 519.56 183.261C518.255 182.673 516.8 182.498 515.393 182.761C513.085 183.472 510.954 184.665 509.142 186.262C508.434 186.804 507.767 187.387 507.059 188.012L518.518 203.097ZM519.56 204.43L525.727 212.431C528.352 215.848 529.894 217.973 530.936 218.806C531.609 219.547 532.526 220.02 533.519 220.14C534.935 220.013 536.262 219.393 537.269 218.39C538.497 217.593 539.548 216.554 540.358 215.335C541.167 214.117 541.719 212.746 541.978 211.306C542.077 209.792 541.869 208.274 541.368 206.842C540.867 205.41 540.083 204.094 539.061 202.972C538.238 201.685 537.145 200.593 535.856 199.773C534.568 198.953 533.116 198.423 531.602 198.221C527.838 198.509 524.282 200.066 521.518 202.638L519.56 204.43Z" fill="#133510"/>
<path d="M618.193 160.093L619.693 159.468L624.152 172.927L589.357 187.262L588.774 185.845L589.649 185.512C591.733 184.637 592.941 183.803 593.316 182.97C593.705 182.167 593.807 181.255 593.608 180.386C592.954 178.106 592.132 175.878 591.149 173.719L582.815 152.884C581.986 150.756 581.026 148.683 579.94 146.675C579.734 146.266 579.441 145.909 579.081 145.628C578.721 145.347 578.302 145.149 577.856 145.05C576.406 145.077 574.981 145.433 573.689 146.091L572.856 145.05L602.9 132.548L608.234 142.591L606.776 143.216C605.485 141.143 603.783 139.356 601.775 137.966C600.448 137.172 598.892 136.849 597.358 137.049C595.092 137.513 592.884 138.226 590.774 139.174L584.94 141.591L592.233 159.259L596.691 157.426C598.21 156.907 599.622 156.116 600.858 155.092C601.171 154.809 601.419 154.461 601.585 154.072C601.75 153.684 601.829 153.264 601.817 152.842C601.551 151.402 601.103 150.001 600.483 148.675L601.942 148.091L607.859 162.468L606.401 163.093C605.879 161.443 605.012 159.924 603.858 158.634C603.553 158.332 603.188 158.098 602.786 157.947C602.383 157.796 601.954 157.732 601.525 157.759C600.085 157.979 598.682 158.4 597.358 159.009L592.733 160.884L596.9 170.844C597.838 173.907 599.399 176.744 601.483 179.178C602.483 179.761 604.359 179.511 607.192 178.344L610.318 177.052C612.201 176.349 613.939 175.303 615.443 173.969C616.766 172.513 617.673 170.729 618.068 168.802C618.674 165.934 618.717 162.976 618.193 160.093Z" fill="#133510"/>
<path d="M712.577 156.592L700.409 157.926C696.175 154.883 692.401 151.249 689.2 147.133C687.533 145.258 685.866 143.466 684.116 141.758C683.044 140.611 681.858 139.577 680.574 138.674C679.714 138.279 678.753 138.163 677.824 138.341L675.99 138.549L677.115 148.591C677.305 150.916 677.639 153.226 678.115 155.509C678.215 155.987 678.411 156.441 678.69 156.842C678.969 157.243 679.327 157.583 679.741 157.842C681.071 158.344 682.515 158.46 683.908 158.176L686.075 157.926V159.468L664.531 161.718V160.176H665.989C667.461 160.188 668.905 159.784 670.156 159.009C670.506 158.707 670.79 158.337 670.991 157.922C671.191 157.506 671.304 157.054 671.323 156.592C671.326 154.167 671.159 151.744 670.823 149.342L668.406 127.173C668.192 124.833 667.83 122.508 667.323 120.214C667.22 119.786 667.024 119.385 666.751 119.04C666.477 118.694 666.133 118.413 665.74 118.214C664.244 117.878 662.692 117.878 661.197 118.214H660.447V116.714L666.865 115.63C671.032 114.963 674.574 114.505 677.115 114.213C680.641 113.726 684.216 113.726 687.741 114.213C690.324 114.624 692.745 115.734 694.742 117.422C696.591 119.021 697.742 121.279 697.951 123.714C698.128 125.13 698.005 126.567 697.588 127.931C697.171 129.296 696.471 130.557 695.533 131.632C693.086 134.222 689.874 135.96 686.366 136.59C690.292 138.87 693.755 141.867 696.575 145.425C699.205 148.593 702.246 151.396 705.618 153.759C707.816 154.971 710.328 155.494 712.827 155.259L712.577 156.592ZM675.823 137.007L680.991 136.257C682.549 136.023 684.074 135.603 685.533 135.007C686.679 134.531 687.704 133.805 688.533 132.882C689.296 131.946 689.838 130.848 690.117 129.673C690.397 128.13 690.397 126.549 690.117 125.006C689.973 122.241 688.833 119.62 686.908 117.63C685.338 116.621 683.577 115.944 681.735 115.643C679.893 115.342 678.009 115.423 676.199 115.88C675.407 115.88 674.448 116.13 673.407 116.339L675.823 137.007Z" fill="#133510"/>
<path d="M752.039 123.84H750.497L752.456 113.047L796.043 119.964L794.584 130.799L793.126 130.549C793.219 128.266 792.865 125.987 792.084 123.84C791.611 122.619 790.727 121.603 789.584 120.964C787.934 120.329 786.213 119.896 784.459 119.672L777.25 118.548L772.249 150.259C771.827 152.56 771.535 154.883 771.374 157.218C771.348 157.697 771.418 158.178 771.583 158.629C771.748 159.08 772.003 159.493 772.332 159.843C773.539 160.745 774.994 161.255 776.5 161.301L778.667 161.676V163.176L756.248 159.635L756.498 158.134L758.831 158.468C760.192 158.866 761.638 158.866 762.998 158.468C763.422 158.27 763.8 157.986 764.109 157.635C764.417 157.283 764.649 156.872 764.79 156.426C765.439 154.087 765.926 151.706 766.249 149.3L771.249 117.589L764.582 116.547C762.649 116.156 760.677 115.988 758.706 116.047C757.421 116.307 756.277 117.035 755.497 118.089C754.001 119.778 752.829 121.727 752.039 123.84Z" fill="#133510"/>
<path d="M830.045 177.553L836.088 164.218L837.588 164.885C835.421 174.386 837.588 180.553 844.047 183.47C845.255 184.107 846.582 184.488 847.945 184.588C849.307 184.689 850.675 184.507 851.964 184.053C853.032 183.66 854.013 183.06 854.85 182.288C855.686 181.516 856.362 180.587 856.84 179.553C857.31 178.592 857.575 177.544 857.618 176.475C857.661 175.406 857.481 174.34 857.089 173.344C855.678 170.394 853.76 167.714 851.422 165.427C849.293 163.209 847.342 160.826 845.588 158.301C844.403 156.541 843.686 154.508 843.504 152.393C843.322 150.279 843.68 148.154 844.547 146.217C845.129 144.825 845.998 143.572 847.096 142.538C848.195 141.504 849.498 140.713 850.922 140.216C853.917 139.19 857.196 139.385 860.048 140.758C861.753 141.514 863.306 142.573 864.632 143.883C866.118 145.497 867.203 147.439 867.799 149.55C869.147 148.937 870.269 147.917 871.008 146.633L872.383 147.258L867.465 158.093L866.132 157.509C866.834 154.394 866.572 151.138 865.382 148.175C864.327 145.589 862.31 143.513 859.756 142.383C858.798 141.848 857.735 141.53 856.64 141.45C855.546 141.371 854.447 141.533 853.422 141.924C851.797 142.643 850.492 143.933 849.755 145.55C849.333 146.464 849.115 147.46 849.115 148.467C849.115 149.474 849.333 150.469 849.755 151.384C851.231 154.331 853.157 157.03 855.464 159.384C857.612 161.73 859.629 164.193 861.507 166.76C862.693 168.461 863.412 170.444 863.59 172.511C863.775 174.774 863.358 177.045 862.382 179.094C861.717 180.733 860.711 182.211 859.433 183.432C858.154 184.653 856.631 185.589 854.964 186.178C851.312 187.3 847.367 186.956 843.964 185.22C841.785 184.282 839.845 182.866 838.287 181.077C836.729 179.288 835.593 177.172 834.963 174.886C833.622 175.741 832.484 176.879 831.629 178.22L830.045 177.553Z" fill="#133510"/>
<path d="M909.969 195.054C911.907 192.554 914.371 190.512 917.187 189.071C920.003 187.631 923.102 186.828 926.263 186.72C932.727 186.561 939.006 188.888 943.806 193.221C948.894 197.282 952.258 203.117 953.223 209.556C953.644 212.746 953.35 215.99 952.362 219.053C951.375 222.116 949.719 224.921 947.515 227.266C945.566 229.767 943.111 231.829 940.311 233.315C937.51 234.802 934.427 235.68 931.263 235.891C924.718 235.863 918.393 233.523 913.406 229.283C908.419 225.044 905.091 219.178 904.01 212.723C903.699 209.524 904.07 206.295 905.097 203.25C906.124 200.205 907.785 197.411 909.969 195.054ZM915.678 200.221C911.571 204.374 908.987 209.792 908.344 215.598C908.344 218.071 908.925 220.509 910.039 222.717C911.154 224.924 912.772 226.839 914.762 228.307C916.468 229.876 918.516 231.025 920.744 231.661C922.972 232.298 925.319 232.405 927.596 231.974C933.029 230.066 937.855 226.743 941.576 222.348C945.297 217.953 947.778 212.645 948.764 206.972C948.724 204.573 948.18 202.209 947.166 200.035C946.152 197.86 944.691 195.924 942.879 194.351C941.067 192.779 938.944 191.606 936.648 190.908C934.352 190.211 931.935 190.005 929.554 190.304C923.934 191.931 919.038 195.431 915.678 200.221Z" fill="#133510"/>
<path d="M980.976 311.732L999.978 261.727L973.267 278.396C971.759 279.252 970.36 280.288 969.1 281.479C968.453 282.368 968.184 283.476 968.35 284.563C968.567 286.414 969.255 288.18 970.35 289.688L969.017 290.522L960.016 276.145L961.308 275.312C962.249 276.764 963.502 277.988 964.975 278.896C965.803 279.463 966.819 279.687 967.809 279.521C969.416 278.843 970.952 278.005 972.392 277.02L992.811 264.186C994.845 263.006 996.745 261.609 998.478 260.019C998.835 259.7 999.12 259.307 999.314 258.869C999.508 258.431 999.607 257.956 999.603 257.477C999.147 255.981 998.443 254.572 997.52 253.31L998.811 252.477L1005.98 263.853L990.144 305.523L1013.19 291.105C1014.46 290.419 1015.57 289.467 1016.44 288.313C1016.94 287.332 1017.03 286.193 1016.69 285.146C1016.34 283.655 1015.72 282.241 1014.85 280.979L1016.15 280.146L1024.94 294.105L1023.61 294.939C1022.73 293.639 1021.59 292.533 1020.27 291.688C1019.42 291.113 1018.38 290.875 1017.35 291.022C1016.02 291.413 1014.75 292.018 1013.6 292.814L981.768 312.815L980.976 311.732Z" fill="#133510"/>
<path d="M1002.94 357.069L1016.98 352.902L1017.44 354.486C1008.85 359.014 1005.58 364.695 1007.6 371.529C1007.92 372.849 1008.5 374.091 1009.31 375.18C1010.12 376.269 1011.14 377.182 1012.31 377.863C1013.31 378.424 1014.41 378.782 1015.55 378.918C1016.68 379.054 1017.84 378.965 1018.94 378.655C1019.96 378.371 1020.92 377.881 1021.75 377.215C1022.58 376.549 1023.27 375.72 1023.77 374.779C1025.09 371.772 1025.86 368.555 1026.06 365.278C1026.37 362.229 1026.9 359.207 1027.65 356.236C1028.23 354.169 1029.32 352.279 1030.81 350.735C1032.28 349.239 1034.1 348.136 1036.11 347.527C1037.55 347.069 1039.07 346.914 1040.58 347.072C1042.08 347.23 1043.54 347.697 1044.86 348.444C1046.22 349.227 1047.41 350.276 1048.35 351.529C1049.3 352.782 1049.98 354.213 1050.36 355.736C1050.9 357.501 1051.13 359.35 1051.02 361.195C1050.76 363.383 1049.99 365.481 1048.77 367.32C1050.08 367.908 1051.53 368.097 1052.94 367.862L1053.36 369.279L1041.94 372.654L1041.52 371.237C1044.33 369.747 1046.61 367.435 1048.07 364.612C1049.34 362.128 1049.61 359.247 1048.82 356.569C1048.6 355.495 1048.14 354.483 1047.49 353.604C1046.83 352.726 1045.99 352.002 1045.02 351.485C1043.42 350.701 1041.58 350.537 1039.86 351.027C1038.89 351.305 1038 351.788 1037.23 352.442C1036.47 353.097 1035.86 353.907 1035.44 354.819C1034.16 357.871 1033.37 361.106 1033.11 364.403C1032.52 368.598 1031.98 371.723 1031.48 373.779C1030.98 375.794 1029.94 377.636 1028.48 379.113C1026.89 380.748 1024.89 381.928 1022.69 382.53C1021.01 383.088 1019.23 383.285 1017.47 383.105C1015.71 382.925 1014.01 382.374 1012.48 381.488C1009.25 379.464 1006.94 376.267 1006.02 372.571C1005.31 370.304 1005.12 367.907 1005.46 365.556C1005.79 363.205 1006.66 360.96 1007.98 358.986C1006.45 358.558 1004.85 358.444 1003.27 358.653L1002.94 357.069Z" fill="#133510"/>
</g>
</g>
</g>
<defs>
<clipPath id="clip0_7_109">
<rect width="1440" height="900" fill="white"/>
</clipPath>
</defs>
</svg>
