<svg width="1440" height="1024" viewBox="0 0 1440 1024" fill="none" xmlns="http://www.w3.org/2000/svg">
<g id="frame-7">
<rect width="1440" height="1024" fill="white"/>
<g id="leaf-1">
<path d="M676 609.843C676.297 608.779 725.695 539.3 762.852 540.662C762.852 540.662 772.378 541.764 784.938 567.537C791.659 582.049 801.272 595.195 813.223 606.213L819.633 619.709C797.954 607.247 773.629 599.854 748.66 598.139C723.69 596.424 698.788 600.435 676 609.843Z" fill="#133510"/>
<path d="M985.212 677.431C968.694 664.748 949.022 656.39 928.256 653.235C928.256 653.235 837.871 631.67 822.013 621.183C813.811 615.467 806.988 608.146 802.032 599.746C798.914 594.724 795.961 589.748 792.057 585.005C781.1 570.909 771.322 556.045 762.816 540.555C847.188 545.245 963.006 648.73 969.619 654.562C868.685 547.589 767.996 534.692 767.996 534.692C790.621 533.946 856.822 533.899 880.538 554.966C892.884 566.513 907.386 575.775 923.253 582.247C930.031 584.687 936.332 588.246 941.854 592.752C976.953 622.56 985.212 677.431 985.212 677.431Z" fill="#133510"/>
</g>
<path id="leaf-3" d="M612.782 424.736C660.989 380.818 691.587 305.348 691.587 305.348C672.829 342.591 648.965 377.285 620.691 408.419C620.351 408.706 619.927 408.874 619.488 408.895C619.05 408.916 618.623 408.788 618.28 408.533C617.938 408.278 617.7 407.911 617.607 407.494C617.513 407.077 617.57 406.634 617.767 406.241C629.253 380.018 630.851 353.132 650.291 325.71C674.217 291.153 724.593 250.108 724.593 250.108C715.918 267.007 709.94 325.618 709.94 325.618C692.697 411.351 621.165 423.647 612.782 424.736Z" fill="#133510"/>
<path id="leaf-2" d="M505.528 165C505.528 165 366.244 351.509 461.688 455.292C461.688 455.292 473.469 303.32 480.808 273.515C480.808 273.515 455.724 442.109 496.937 521.113C496.937 521.113 530.055 465.758 513.197 408.676C496.338 351.595 538.423 344.84 522.225 284.697C506.026 224.554 497.912 203.995 505.528 165Z" fill="#133510"/>
<path id="stem-seven" d="M393.5 623.5C304.829 756.183 341 828.5 353 1024H379.103C349.365 779 353.657 757.445 407 648C466.218 526.5 701.669 598 674 408C698.988 579.589 460.998 522.5 393.5 623.5Z" fill="#133510"/>
</g>
</svg>
