<svg width="1440" height="1024" viewBox="0 0 1440 1024" fill="none" xmlns="http://www.w3.org/2000/svg">
<g id="frame-8">
<rect width="1440" height="1024" fill="white"/>
<g id="leaf-1">
<path d="M784.994 586.505C785.897 585.834 867.469 562.613 894.604 589.285C894.604 589.285 901.081 596.743 894.099 626.596C889.903 643.162 888.76 660.594 890.735 677.881L886.953 693.398C878.567 668.232 864.952 645.42 847.227 626.837C829.502 608.254 808.174 594.432 784.994 586.505Z" fill="#133510"/>
<path d="M974.446 850.213C969.723 828.61 960.074 808.232 946.51 791.216C946.51 791.216 892.14 710.941 886.598 691.54C883.907 681.275 883.196 670.7 884.519 660.575C885.195 654.413 885.966 648.403 885.89 641.912C886.145 623.075 887.736 604.453 890.645 586.224C950.605 648.914 975.043 811.931 976.485 821.178C965.197 665.797 897.994 585.195 897.994 585.195C915.268 600.417 964.537 646.649 969.615 679.932C971.912 697.719 977.176 715.2 985.119 731.423C988.705 738.095 991.27 745.321 992.69 752.754C1001.02 800.925 974.446 850.213 974.446 850.213Z" fill="#133510"/>
</g>
<path id="leaf-3" d="M620.358 773.854C611.589 707.702 567.399 638.115 567.399 638.115C587.167 675.542 602.019 715.801 611.525 757.717C611.569 758.17 611.469 758.626 611.241 759.008C611.014 759.391 610.672 759.677 610.274 759.818C609.876 759.959 609.446 759.947 609.055 759.784C608.664 759.621 608.337 759.317 608.128 758.922C593.25 734.021 572.322 717.084 560.905 684.775C546.198 644.543 540.969 578.226 540.969 578.226C549.847 595.347 594.079 634.379 594.079 634.379C654.04 698.645 624.147 766.148 620.358 773.854Z" fill="#133510"/>
<path id="leaf-2" d="M535.416 230.519C535.416 230.519 584.091 465.001 722.726 458.648C722.726 458.648 617.462 348.056 600.061 322.389C600.061 322.389 709.089 454.582 794.343 474.622C794.343 474.622 774.595 411.533 721.329 386.833C668.064 362.133 690.192 324.335 635.078 297.073C579.965 269.81 559.463 262.53 535.416 230.519Z" fill="#133510"/>
</g>
</svg>
