<svg width="1440" height="1024" viewBox="0 0 1440 1024" fill="none" xmlns="http://www.w3.org/2000/svg">
<g id="frame-17">
<rect width="1440" height="1024" fill="white"/>
<g id="market">
<path d="M701.58 881.777L722.356 841.913L738.068 842.757V844.445H736.192C734.53 844.218 732.838 844.33 731.22 844.774C730.798 844.988 730.428 845.292 730.137 845.665C729.845 846.038 729.639 846.47 729.532 846.931C729.023 849.496 728.74 852.101 728.688 854.716L727.422 878.916C727.247 881.461 727.247 884.016 727.422 886.561C727.454 887.094 727.596 887.615 727.838 888.091C728.08 888.567 728.417 888.988 728.829 889.328C730.267 890.105 731.884 890.493 733.518 890.453H735.77V892.095L711.382 890.782V889.14H713.211C714.797 889.356 716.412 889.162 717.901 888.578C718.339 888.308 718.718 887.953 719.016 887.534C719.314 887.115 719.525 886.641 719.637 886.139C720.12 883.555 720.387 880.935 720.434 878.307L722.122 846.837L699.095 890.266H697.312L679.303 844.867L677.755 873.804C677.54 876.489 677.54 879.186 677.755 881.871C677.957 883.397 678.707 884.797 679.866 885.81C681.404 887.051 683.288 887.788 685.26 887.921V889.609L667.016 888.624V886.936C668.92 887.01 670.801 886.503 672.409 885.482C673.762 884.668 674.739 883.354 675.129 881.824C675.667 879.072 675.965 876.279 676.02 873.476L677.193 851.996C677.386 849.452 677.386 846.896 677.193 844.352C677.154 843.866 677.007 843.395 676.764 842.974C676.52 842.552 676.187 842.19 675.786 841.913C674.215 841.249 672.519 840.929 670.814 840.975H669.408V839.333L684.978 840.131L701.58 881.777Z" fill="#133510"/>
<path d="M819.11 859.874L800.35 864.564L799.834 867.94C799.131 871.014 798.894 874.176 799.131 877.32C799.254 877.96 799.533 878.559 799.942 879.066C800.351 879.573 800.877 879.972 801.476 880.228C802.83 880.679 804.295 880.679 805.65 880.228L806.072 881.87L791.299 885.528L790.923 883.933C792.716 883.304 794.24 882.079 795.238 880.462C796.343 877.8 797.038 874.985 797.302 872.115C797.302 871.692 797.583 870.192 798.005 867.425L804.102 830.515L805.556 830.14L831.679 864.095L835.196 868.55C835.893 869.5 836.832 870.246 837.916 870.708C839.298 871.085 840.756 871.085 842.137 870.708L842.559 872.349L823.003 877.039L822.627 875.398C824.267 875.078 825.849 874.508 827.317 873.709C827.672 873.446 827.935 873.078 828.07 872.657C828.205 872.237 828.204 871.784 828.068 871.364C827.287 869.847 826.326 868.43 825.207 867.143L819.11 859.874ZM818.125 858.42L804.055 840.176L800.444 862.829L818.125 858.42Z" fill="#133510"/>
<path d="M941.141 824.935L929.182 831.782C923.546 830.669 918.098 828.758 913.001 826.107C910.469 824.982 907.983 823.95 905.451 823.012C903.845 822.354 902.18 821.851 900.479 821.511C899.412 821.547 898.375 821.871 897.478 822.449L895.696 823.481L901.183 832.861C902.391 835.1 903.738 837.261 905.216 839.333C905.514 839.771 905.903 840.14 906.356 840.415C906.809 840.69 907.316 840.865 907.842 840.927C909.53 840.877 911.164 840.321 912.532 839.333L914.69 838.113L915.534 839.567L894.242 851.761L893.444 850.307L894.851 849.463C896.279 848.809 897.509 847.79 898.416 846.508C898.627 846.044 898.736 845.541 898.736 845.031C898.736 844.521 898.627 844.017 898.416 843.553C897.387 841.138 896.18 838.802 894.804 836.566L882.751 815.508C881.539 813.261 880.176 811.099 878.671 809.036C878.366 808.65 877.982 808.333 877.546 808.107C877.109 807.881 876.63 807.75 876.139 807.723C874.458 808.057 872.863 808.727 871.449 809.692L870.698 810.114L869.854 808.661L876.045 804.721C880.172 802.095 883.455 800.031 885.94 798.624C889.392 796.616 893.078 795.041 896.915 793.934C899.727 793.182 902.686 793.182 905.497 793.934C908.048 794.651 910.218 796.333 911.548 798.624C912.328 799.976 912.81 801.478 912.964 803.031C913.118 804.583 912.939 806.151 912.438 807.629C911.03 811.363 908.467 814.55 905.122 816.727C910.124 817.247 914.987 818.678 919.473 820.948C923.543 822.857 927.848 824.213 932.277 824.982C935.079 825.222 937.888 824.618 940.343 823.246L941.141 824.935ZM894.851 822.027L899.823 818.931C901.348 818.001 902.75 816.883 903.996 815.602C904.97 814.642 905.709 813.47 906.154 812.178C906.526 810.9 906.622 809.557 906.435 808.239C906.102 806.581 905.483 804.994 904.606 803.549C903.223 800.853 900.906 798.752 898.088 797.639C893.902 797.087 889.669 798.217 886.316 800.782L883.642 802.47L894.851 822.027Z" fill="#133510"/>
<path d="M979.13 762.09L980.209 741.408C980.209 736.718 980.209 733.763 979.13 732.825C978.051 731.887 975.66 731.981 973.08 734.513L971.861 733.341L985.274 719.271L986.493 720.444C985.364 721.64 984.472 723.041 983.867 724.571C983.238 726.071 982.812 727.648 982.6 729.261C982.6 730.949 982.225 734.232 982.085 739.11L981.616 751.585L1008.39 750.787C1012.32 750.819 1016.25 750.505 1020.12 749.849C1022.04 749.269 1023.76 748.165 1025.09 746.66L1026.31 747.786L1007.83 766.921L1006.66 765.795L1007.36 765.045C1008.74 763.835 1009.84 762.349 1010.6 760.683C1010.68 760.345 1010.68 759.992 1010.59 759.655C1010.5 759.319 1010.32 759.011 1010.08 758.76C1007.29 757.767 1004.29 757.493 1001.36 757.963L981.194 758.573L980.865 763.262L987.384 769.547C989.185 771.352 991.096 773.043 993.106 774.612C993.518 774.937 993.995 775.172 994.504 775.301C995.013 775.43 995.543 775.451 996.06 775.362C997.605 774.849 998.961 773.885 999.953 772.595L1000.66 771.892L1001.88 773.064L985.884 789.62L984.711 788.447L985.79 787.322C986.977 786.292 987.868 784.965 988.369 783.476C988.465 782.972 988.455 782.454 988.342 781.954C988.229 781.454 988.015 780.982 987.713 780.568C986.036 778.536 984.218 776.624 982.272 774.847L964.779 758.01C962.979 756.122 961.018 754.396 958.917 752.851C958.521 752.588 958.072 752.414 957.603 752.341C957.133 752.268 956.653 752.298 956.196 752.429C954.578 753.321 953.146 754.515 951.976 755.946L950.756 754.774L966.467 738.5L967.687 739.672L967.03 740.329C965.796 741.464 964.778 742.815 964.029 744.315C963.924 744.772 963.916 745.246 964.005 745.706C964.094 746.166 964.278 746.603 964.544 746.989C966.164 749.041 967.952 750.955 969.891 752.71L979.13 762.09Z" fill="#133510"/>
<path d="M1064.49 657.458L1065.33 655.864L1078.46 663.977L1058.72 701.496L1057.22 700.746L1057.73 699.808C1058.67 698.424 1059.16 696.788 1059.14 695.118C1058.91 694.155 1058.37 693.295 1057.59 692.679C1055.43 691.181 1053.17 689.819 1050.84 688.599L1029.41 677.297C1027.22 676.095 1024.97 675.029 1022.65 674.107C1022.19 673.916 1021.7 673.818 1021.2 673.818C1020.7 673.818 1020.21 673.916 1019.74 674.107C1018.5 675.199 1017.52 676.563 1016.88 678.094L1015.38 677.297L1032.41 644.936L1043.9 649.626L1043.05 651.174C1040.51 650.35 1037.83 650.078 1035.17 650.376C1033.49 650.667 1031.95 651.528 1030.81 652.815C1029.21 654.869 1027.83 657.085 1026.69 659.428L1023.4 665.712L1041.74 675.374L1044.27 670.684C1045.19 669.168 1045.82 667.5 1046.15 665.759C1046.23 665.304 1046.21 664.837 1046.09 664.391C1045.96 663.945 1045.75 663.532 1045.45 663.18C1044.22 662.059 1042.83 661.14 1041.32 660.46L1042.12 658.912L1057.12 666.791L1056.28 668.339C1054.69 667.359 1052.92 666.705 1051.07 666.416C1050.59 666.399 1050.11 666.478 1049.66 666.647C1049.21 666.816 1048.8 667.072 1048.45 667.401C1047.46 668.613 1046.61 669.935 1045.91 671.34L1043.29 676.312L1053.65 681.752C1056.57 683.719 1059.88 685.017 1063.36 685.551C1064.63 685.551 1066.08 683.722 1067.68 680.861L1069.46 677.531C1070.55 675.546 1071.3 673.389 1071.66 671.153C1071.8 668.973 1071.33 666.798 1070.3 664.868C1068.9 662.018 1066.92 659.493 1064.49 657.458Z" fill="#133510"/>
<path d="M1062.56 598.787L1062.24 600.476L1050.65 597.896L1060.03 549.168L1071.76 551.232L1071.47 552.826C1068.96 552.654 1066.44 552.989 1064.06 553.811C1062.72 554.293 1061.58 555.219 1060.83 556.437C1060.06 558.273 1059.51 560.193 1059.19 562.159L1057.59 570.226L1091.83 577.026C1094.32 577.586 1096.84 577.993 1099.38 578.245C1099.91 578.293 1100.45 578.231 1100.96 578.061C1101.47 577.892 1101.94 577.619 1102.33 577.261C1103.3 575.972 1103.89 574.45 1104.07 572.852L1104.58 570.366L1106.23 570.695L1101.26 595.739L1099.61 595.411L1100.13 592.831C1100.54 591.295 1100.54 589.678 1100.13 588.141C1099.92 587.672 1099.63 587.248 1099.26 586.894C1098.89 586.54 1098.45 586.263 1097.97 586.078C1095.48 585.244 1092.92 584.616 1090.33 584.202L1056.04 577.401L1054.59 584.858C1054.06 587.023 1053.77 589.242 1053.75 591.471C1053.98 592.895 1054.71 594.19 1055.81 595.129C1057.79 596.788 1060.09 598.032 1062.56 598.787Z" fill="#133510"/>
</g>
<g id="food">
<path d="M386.7 577.402L374.506 579.278V577.496C376.838 576.972 379.01 575.895 380.837 574.353C382.224 573.314 383.229 571.847 383.698 570.179C383.99 567.922 383.99 565.636 383.698 563.379L382.525 553.436L361.702 555.922L362.265 560.612C362.276 562.789 363.076 564.888 364.516 566.521C366.407 567.549 368.609 567.849 370.707 567.365L370.942 569.194L353.636 571.258V569.382C355.253 569.222 356.835 568.811 358.326 568.163C359.333 567.723 360.137 566.919 360.577 565.912C360.93 564.226 360.93 562.485 360.577 560.799L360.014 556.11L347.82 557.563C345.281 557.817 342.759 558.225 340.269 558.783C339.75 558.897 339.261 559.118 338.832 559.433C338.404 559.749 338.047 560.15 337.784 560.612C337.281 562.124 337.184 563.741 337.502 565.302V566.99H335.814L333 543.541H334.688V545.088C334.724 546.737 335.176 548.35 336.002 549.778C336.338 550.164 336.747 550.479 337.206 550.704C337.665 550.929 338.164 551.061 338.675 551.091C341.329 551.095 343.979 550.891 346.601 550.482L370.66 547.621C373.206 547.398 375.731 546.975 378.211 546.354C378.674 546.237 379.106 546.021 379.478 545.722C379.851 545.422 380.154 545.046 380.368 544.619C380.728 542.934 380.728 541.192 380.368 539.507V538.616H382.01L386.7 577.402Z" fill="#133510"/>
<path d="M375.491 630.82C378.584 629.252 381.989 628.401 385.456 628.328C388.922 628.255 392.361 628.962 395.517 630.398C402.054 633.458 407.22 638.841 410.008 645.499C413.251 652.029 413.985 659.522 412.072 666.557C411.067 669.934 409.314 673.041 406.943 675.647C404.572 678.254 401.645 680.292 398.378 681.612C395.274 683.175 391.868 684.048 388.395 684.169C384.922 684.29 381.463 683.658 378.258 682.315C371.704 679.054 366.47 673.641 363.43 666.982C360.391 660.322 359.731 652.821 361.562 645.734C362.66 642.385 364.475 639.316 366.881 636.74C369.287 634.164 372.225 632.144 375.491 630.82ZM378.821 638.793C372.918 641.033 367.955 645.218 364.751 650.658C363.645 653.194 363.134 655.949 363.256 658.713C363.378 661.476 364.13 664.175 365.454 666.604C366.416 669.005 367.919 671.152 369.847 672.877C371.775 674.602 374.076 675.857 376.569 676.546C382.807 677.795 389.286 676.799 394.86 673.733C400.74 671.478 405.695 667.317 408.93 661.914C409.925 659.44 410.409 656.791 410.355 654.125C410.3 651.46 409.708 648.833 408.613 646.402C407.518 643.971 405.943 641.786 403.982 639.979C402.022 638.172 399.717 636.779 397.205 635.885C390.925 634.678 384.422 635.707 378.821 638.793Z" fill="#133510"/>
<path d="M429.613 727.479C432.051 725.044 434.997 723.176 438.239 722.009C441.481 720.842 444.941 720.403 448.372 720.725C455.625 721.482 462.325 724.949 467.132 730.433C472.26 735.588 475.315 742.449 475.714 749.709C475.86 753.249 475.201 756.776 473.788 760.026C472.375 763.275 470.243 766.162 467.554 768.469C465.104 770.906 462.166 772.798 458.933 774.018C455.699 775.239 452.244 775.761 448.794 775.55C441.547 774.528 434.87 771.051 429.876 765.699C424.883 760.347 421.877 753.445 421.359 746.145C421.295 742.62 422 739.125 423.426 735.901C424.851 732.677 426.963 729.803 429.613 727.479ZM435.334 733.951C430.379 737.975 426.939 743.565 425.579 749.803C425.329 752.554 425.715 755.325 426.707 757.903C427.699 760.481 429.271 762.796 431.301 764.67C432.976 766.64 435.083 768.199 437.458 769.224C439.833 770.248 442.412 770.712 444.996 770.579C451.308 769.766 457.134 766.762 461.457 762.09C466.272 758.066 469.579 752.527 470.837 746.379C471.15 743.689 470.835 740.963 469.915 738.416C468.995 735.868 467.497 733.569 465.537 731.7C463.832 729.645 461.675 728.013 459.234 726.931C456.793 725.849 454.135 725.346 451.468 725.462C445.277 726.363 439.583 729.359 435.334 733.951Z" fill="#133510"/>
<path d="M521.348 780.381L528.805 784.226C535.042 787.463 539.263 789.667 541.374 790.886C546.807 793.69 551.5 797.74 555.069 802.705C557.505 806.458 558.777 810.847 558.726 815.321C558.52 819.933 557.148 824.419 554.74 828.358C553.09 831.323 550.913 833.962 548.315 836.144C546.036 838.047 543.384 839.453 540.529 840.271C537.855 840.988 535.061 841.147 532.322 840.74C529.769 840.394 527.276 839.7 524.912 838.676C522.802 837.738 519.847 836.191 516.189 833.986L496.538 822.59L497.382 821.136L499.212 822.215C500.509 823.103 502.009 823.652 503.573 823.809C504.081 823.775 504.576 823.637 505.028 823.403C505.48 823.169 505.879 822.844 506.2 822.449C507.803 820.351 509.231 818.123 510.468 815.789L522.426 795.154C523.77 792.98 524.946 790.707 525.944 788.354C526.146 787.912 526.251 787.432 526.251 786.946C526.251 786.461 526.146 785.981 525.944 785.539C524.817 784.263 523.446 783.227 521.911 782.491L520.597 781.741L521.348 780.381ZM534.48 789.151L517.924 817.759C515.486 821.98 513.922 824.747 513.234 826.06C512.955 826.588 512.809 827.175 512.809 827.772C512.809 828.369 512.955 828.957 513.234 829.484C514.492 831.075 516.096 832.359 517.924 833.236C521.099 835.202 524.615 836.554 528.289 837.222C531.722 837.525 535.158 836.666 538.044 834.784C541.952 832.264 545.175 828.816 547.424 824.747C549.37 821.481 550.765 817.915 551.551 814.195C552.29 811.112 552.29 807.898 551.551 804.815C550.87 802.165 549.531 799.729 547.658 797.733C545.28 795.379 542.58 793.374 539.639 791.777C537.95 790.933 536.215 790.042 534.48 789.151Z" fill="#133510"/>
</g>
<g id="Albertsons">
<path d="M392.609 380.894L385.48 398.95L388.012 401.389C390.2 403.774 392.71 405.842 395.469 407.533C396.065 407.837 396.724 407.996 397.392 407.996C398.061 407.996 398.72 407.837 399.315 407.533C400.517 406.736 401.424 405.566 401.895 404.203L403.489 404.859L397.908 418.929L396.314 418.273C396.854 416.427 396.721 414.449 395.938 412.692C394.333 410.201 392.356 407.971 390.076 406.079L386.699 402.796L359.123 375.923L359.638 374.516L403.724 373.578H409.586C410.79 373.574 411.972 373.25 413.01 372.64C414.199 371.834 415.141 370.714 415.73 369.404L417.324 370.06L409.914 388.82L408.32 388.163C409.016 386.684 409.459 385.099 409.633 383.473C409.635 383.019 409.483 382.577 409.202 382.219C408.921 381.862 408.528 381.61 408.085 381.504C406.357 381.282 404.608 381.282 402.88 381.504L392.609 380.894ZM390.779 380.894L367.33 381.316L384.307 397.731L390.779 380.894Z" fill="#133510"/>
<path d="M453.86 287.892L465.631 297.272L439.368 331.931L438.008 330.899L438.899 329.68C439.937 328.502 440.662 327.083 441.009 325.553C441.029 324.496 440.643 323.472 439.931 322.692C437.949 320.806 435.833 319.066 433.599 317.486L413.62 302.338C411.555 300.701 409.376 299.212 407.101 297.882C406.68 297.614 406.201 297.45 405.704 297.401C405.207 297.352 404.706 297.42 404.24 297.601C402.776 298.512 401.54 299.747 400.629 301.212L399.973 302.103L398.566 301.024L413.386 281.467L414.793 282.499L413.433 284.281C412.305 285.543 411.458 287.029 410.947 288.643C410.892 289.119 410.943 289.602 411.097 290.056C411.251 290.51 411.504 290.925 411.838 291.269C413.759 293.168 415.829 294.909 418.029 296.475L439.415 312.655C441.227 314.101 443.139 315.417 445.136 316.595C445.563 316.792 446.027 316.894 446.497 316.894C446.966 316.894 447.43 316.792 447.857 316.595C449.489 315.518 450.878 314.112 451.937 312.468L454.282 309.372C455.798 307.551 457.003 305.491 457.846 303.276C458.305 301.412 458.207 299.456 457.565 297.648C456.49 294.617 454.904 291.794 452.875 289.299L453.86 287.892Z" fill="#133510"/>
<path d="M500.337 228.284C504.026 225.385 508.545 223.742 513.234 223.594C514.99 223.657 516.708 224.111 518.266 224.922C519.824 225.734 521.181 226.882 522.239 228.284C524.139 230.644 525.136 233.603 525.053 236.632C524.966 239.6 523.894 242.454 522.005 244.745C519.381 247.787 516.423 250.525 513.187 252.906L497.242 265.147L496.21 263.786L497.758 262.567C499.077 261.722 500.145 260.54 500.853 259.143C501.018 258.649 501.074 258.125 501.018 257.607C500.961 257.089 500.793 256.589 500.525 256.142C499.148 253.781 497.579 251.538 495.835 249.435L480.639 229.691C479.067 227.51 477.326 225.456 475.434 223.547C475.084 223.186 474.659 222.906 474.189 222.728C473.719 222.549 473.215 222.477 472.713 222.515C471.071 223.015 469.564 223.881 468.305 225.048L467.555 225.657L466.476 224.25L472.995 218.951L480.452 212.854C491.52 204.318 499.509 203.24 504.417 209.618C505.39 210.788 506.078 212.168 506.428 213.649C506.778 215.13 506.78 216.672 506.434 218.154C505.408 222.042 503.293 225.557 500.337 228.284ZM492.552 233.349L493.865 232.411C497.2 230.36 499.757 227.258 501.134 223.594C501.32 222.081 501.173 220.545 500.703 219.095C500.233 217.645 499.452 216.315 498.414 215.199C497.209 213.451 495.6 212.02 493.724 211.025C492.256 210.362 490.619 210.166 489.035 210.462C486.437 211.262 484.039 212.605 482 214.402C481.202 215.011 480.452 215.668 479.655 216.371L492.552 233.349ZM493.724 234.85L500.665 243.854C503.62 247.7 505.355 250.092 506.528 251.03C507.286 251.863 508.318 252.396 509.436 252.531C511.03 252.388 512.523 251.69 513.656 250.561C515.037 249.664 516.221 248.494 517.132 247.123C518.043 245.752 518.664 244.209 518.956 242.588C519.067 240.884 518.834 239.175 518.27 237.564C517.706 235.952 516.822 234.471 515.673 233.208C514.747 231.76 513.516 230.532 512.066 229.608C510.616 228.685 508.982 228.089 507.278 227.862C503.041 228.186 499.04 229.938 495.929 232.833L493.724 234.85Z" fill="#133510"/>
<path d="M604.734 184.949L606.423 184.245L611.441 199.394L572.28 215.527L571.623 213.932L572.609 213.557C574.953 212.572 576.314 211.634 576.736 210.696C577.173 209.793 577.289 208.767 577.064 207.789C576.328 205.222 575.403 202.714 574.297 200.285L564.917 176.835C563.984 174.441 562.903 172.107 561.681 169.847C561.45 169.388 561.12 168.985 560.714 168.669C560.309 168.352 559.838 168.13 559.336 168.018C557.704 168.049 556.1 168.45 554.646 169.191L553.708 168.018L587.522 153.948L593.525 165.251L591.884 165.955C590.431 163.621 588.516 161.61 586.256 160.045C584.762 159.152 583.011 158.789 581.285 159.014C578.734 159.536 576.249 160.338 573.875 161.405L567.309 164.125L575.516 184.011L580.534 181.947C582.244 181.363 583.833 180.473 585.224 179.321C585.577 179.002 585.855 178.61 586.042 178.173C586.228 177.736 586.317 177.263 586.303 176.788C586.004 175.167 585.5 173.591 584.802 172.098L586.444 171.442L593.103 187.622L591.462 188.326C590.875 186.469 589.899 184.758 588.601 183.307C588.257 182.967 587.846 182.703 587.393 182.534C586.941 182.364 586.457 182.292 585.975 182.322C584.353 182.57 582.775 183.044 581.285 183.729L576.079 185.84L580.769 197.049C581.825 200.497 583.581 203.69 585.928 206.429C587.053 207.085 589.164 206.804 592.353 205.491L595.87 204.037C597.99 203.245 599.946 202.068 601.639 200.566C603.128 198.928 604.148 196.919 604.593 194.751C605.276 191.523 605.324 188.194 604.734 184.949Z" fill="#133510"/>
<path d="M710.961 181.009L697.266 182.51C692.501 179.086 688.253 174.995 684.651 170.363C682.775 168.253 680.898 166.236 678.929 164.313C677.723 163.022 676.387 161.859 674.942 160.842C673.975 160.398 672.892 160.267 671.847 160.467L669.784 160.702L671.05 172.004C671.264 174.62 671.639 177.221 672.175 179.79C672.288 180.328 672.507 180.838 672.822 181.29C673.136 181.741 673.538 182.124 674.005 182.416C675.501 182.981 677.127 183.111 678.694 182.791L681.133 182.51V184.245L656.886 186.778V185.043H658.528C660.184 185.056 661.81 184.601 663.217 183.729C663.611 183.39 663.931 182.973 664.156 182.506C664.382 182.038 664.51 181.528 664.531 181.009C664.534 178.279 664.346 175.553 663.968 172.849L661.248 147.898C661.007 145.265 660.599 142.649 660.029 140.066C659.912 139.584 659.692 139.133 659.385 138.745C659.077 138.356 658.689 138.039 658.246 137.815C656.563 137.438 654.817 137.438 653.134 137.815H652.29V136.127L659.513 134.907C664.203 134.157 668.189 133.641 671.05 133.313C675.017 132.764 679.041 132.764 683.009 133.313C685.915 133.775 688.64 135.024 690.888 136.924C692.969 138.724 694.265 141.265 694.499 144.006C694.699 145.599 694.56 147.216 694.091 148.752C693.622 150.287 692.834 151.707 691.779 152.917C689.025 155.832 685.409 157.788 681.461 158.497C685.88 161.063 689.778 164.436 692.951 168.44C695.911 172.006 699.334 175.161 703.129 177.82C705.602 179.185 708.429 179.773 711.242 179.508L710.961 181.009ZM669.596 158.967L675.411 158.122C677.165 157.859 678.882 157.386 680.524 156.716C681.813 156.18 682.967 155.362 683.9 154.324C684.759 153.27 685.369 152.035 685.682 150.712C685.998 148.976 685.998 147.196 685.682 145.46C685.521 142.347 684.238 139.398 682.071 137.158C680.304 136.022 678.323 135.261 676.249 134.922C674.176 134.583 672.055 134.674 670.018 135.189C669.127 135.189 668.048 135.47 666.876 135.705L669.596 158.967Z" fill="#133510"/>
<path d="M755.375 144.147H753.639L755.843 132L804.9 139.785L803.259 151.979L801.617 151.698C801.722 149.128 801.323 146.563 800.445 144.147C799.912 142.774 798.917 141.629 797.631 140.911C795.773 140.196 793.837 139.708 791.862 139.457L783.749 138.191L778.121 173.881C777.646 176.471 777.317 179.086 777.136 181.713C777.106 182.253 777.186 182.793 777.371 183.301C777.557 183.809 777.844 184.274 778.214 184.668C779.572 185.684 781.21 186.257 782.904 186.309L785.343 186.731V188.42L760.111 184.433L760.393 182.745L763.019 183.12C764.55 183.568 766.178 183.568 767.709 183.12C768.186 182.897 768.612 182.578 768.959 182.183C769.306 181.787 769.567 181.324 769.726 180.822C770.456 178.189 771.005 175.51 771.367 172.802L776.995 137.112L769.491 135.939C767.316 135.499 765.097 135.31 762.878 135.377C761.431 135.669 760.144 136.488 759.267 137.675C757.583 139.575 756.264 141.769 755.375 144.147Z" fill="#133510"/>
<path d="M843.169 204.6L849.97 189.592L851.658 190.342C849.219 201.035 851.658 207.976 858.927 211.259C860.287 211.977 861.781 212.405 863.314 212.518C864.847 212.631 866.388 212.426 867.838 211.916C869.04 211.473 870.144 210.798 871.086 209.929C872.027 209.06 872.788 208.014 873.325 206.851C873.855 205.77 874.153 204.59 874.201 203.387C874.25 202.183 874.047 200.983 873.606 199.863C872.018 196.542 869.859 193.527 867.228 190.952C864.832 188.456 862.636 185.774 860.662 182.932C859.329 180.951 858.521 178.663 858.316 176.284C858.111 173.904 858.515 171.512 859.49 169.332C860.145 167.766 861.123 166.355 862.359 165.191C863.595 164.028 865.063 163.138 866.665 162.578C870.036 161.424 873.726 161.642 876.937 163.188C878.855 164.039 880.603 165.23 882.095 166.705C883.768 168.522 884.99 170.707 885.66 173.084C887.177 172.394 888.44 171.245 889.271 169.801L890.819 170.504L885.284 182.698L883.784 182.041C884.574 178.535 884.279 174.871 882.939 171.536C881.752 168.625 879.483 166.289 876.608 165.017C875.53 164.415 874.333 164.057 873.101 163.967C871.869 163.878 870.633 164.06 869.479 164.501C867.65 165.309 866.181 166.761 865.352 168.581C864.877 169.61 864.631 170.731 864.631 171.864C864.631 172.998 864.877 174.118 865.352 175.147C867.013 178.464 869.181 181.502 871.777 184.152C874.195 186.792 876.465 189.563 878.578 192.453C879.913 194.368 880.722 196.599 880.923 198.925C881.131 201.472 880.661 204.028 879.563 206.335C878.814 208.179 877.683 209.843 876.244 211.217C874.805 212.591 873.091 213.645 871.215 214.308C867.104 215.57 862.664 215.183 858.834 213.229C856.382 212.173 854.198 210.579 852.445 208.566C850.691 206.553 849.413 204.172 848.703 201.598C847.194 202.561 845.914 203.841 844.951 205.35L843.169 204.6Z" fill="#133510"/>
<path d="M933.122 224.297C935.302 221.484 938.076 219.185 941.245 217.564C944.414 215.943 947.902 215.039 951.459 214.918C958.735 214.738 965.802 217.357 971.204 222.234C976.93 226.805 980.717 233.372 981.803 240.618C982.276 244.209 981.945 247.86 980.834 251.308C979.723 254.755 977.859 257.912 975.378 260.55C973.185 263.366 970.422 265.686 967.27 267.359C964.118 269.032 960.648 270.02 957.087 270.259C949.721 270.227 942.602 267.593 936.99 262.821C931.377 258.05 927.632 251.448 926.415 244.183C926.065 240.582 926.482 236.949 927.638 233.522C928.794 230.094 930.663 226.95 933.122 224.297ZM939.547 230.113C934.924 234.787 932.015 240.885 931.293 247.419C931.292 250.202 931.946 252.946 933.2 255.431C934.455 257.915 936.276 260.071 938.515 261.723C940.435 263.488 942.741 264.781 945.248 265.498C947.756 266.214 950.397 266.335 952.96 265.85C959.075 263.702 964.506 259.962 968.694 255.016C972.882 250.069 975.674 244.096 976.784 237.711C976.74 235.01 976.127 232.35 974.986 229.903C973.844 227.455 972.2 225.276 970.161 223.506C968.121 221.736 965.731 220.416 963.148 219.631C960.564 218.846 957.843 218.615 955.164 218.951C948.838 220.783 943.328 224.721 939.547 230.113Z" fill="#133510"/>
<path d="M1013.04 355.615L1034.42 299.336L1004.36 318.096C1002.66 319.06 1001.09 320.226 999.672 321.567C998.944 322.567 998.641 323.814 998.828 325.037C999.072 327.121 999.847 329.108 1001.08 330.806L999.578 331.744L989.448 315.564L990.902 314.626C991.961 316.259 993.371 317.637 995.029 318.659C995.961 319.297 997.104 319.55 998.218 319.362C1000.03 318.599 1001.76 317.656 1003.38 316.548L1026.36 302.104C1028.65 300.776 1030.79 299.203 1032.74 297.414C1033.14 297.054 1033.46 296.613 1033.68 296.12C1033.9 295.626 1034.01 295.092 1034 294.553C1033.49 292.869 1032.7 291.284 1031.66 289.863L1033.11 288.925L1041.18 301.728L1023.36 348.627L1049.29 332.4C1050.72 331.628 1051.97 330.556 1052.95 329.258C1053.51 328.154 1053.61 326.872 1053.23 325.694C1052.84 324.015 1052.14 322.424 1051.17 321.004L1052.62 320.066L1062.52 335.777L1061.02 336.715C1060.03 335.252 1058.75 334.008 1057.26 333.057C1056.3 332.409 1055.13 332.142 1053.98 332.307C1052.47 332.747 1051.05 333.428 1049.76 334.323L1013.93 356.835L1013.04 355.615Z" fill="#133510"/>
<path d="M1037.75 406.642L1053.56 401.952L1054.07 403.734C1044.41 408.83 1040.72 415.224 1043.01 422.915C1043.36 424.401 1044.01 425.799 1044.92 427.025C1045.83 428.25 1046.98 429.278 1048.31 430.044C1049.43 430.676 1050.67 431.079 1051.95 431.232C1053.23 431.385 1054.52 431.284 1055.76 430.935C1056.92 430.616 1058 430.065 1058.93 429.315C1059.87 428.565 1060.64 427.632 1061.2 426.574C1062.68 423.189 1063.56 419.569 1063.78 415.881C1064.13 412.449 1064.72 409.048 1065.56 405.704C1066.22 403.377 1067.45 401.25 1069.13 399.513C1070.78 397.829 1072.83 396.587 1075.09 395.902C1076.71 395.387 1078.42 395.212 1080.12 395.39C1081.81 395.567 1083.45 396.093 1084.93 396.933C1086.47 397.815 1087.8 398.996 1088.87 400.406C1089.93 401.816 1090.7 403.427 1091.12 405.141C1091.74 407.127 1091.99 409.208 1091.88 411.285C1091.58 413.748 1090.71 416.108 1089.34 418.179C1090.81 418.841 1092.44 419.052 1094.03 418.788L1094.5 420.383L1081.65 424.182L1081.18 422.587C1084.34 420.91 1086.91 418.308 1088.55 415.13C1089.98 412.335 1090.29 409.092 1089.39 406.079C1089.14 404.87 1088.63 403.731 1087.89 402.742C1087.16 401.753 1086.21 400.938 1085.12 400.357C1083.31 399.474 1081.24 399.29 1079.31 399.841C1078.22 400.154 1077.21 400.697 1076.36 401.434C1075.5 402.17 1074.81 403.083 1074.34 404.109C1072.9 407.544 1072.01 411.184 1071.71 414.896C1071.05 419.617 1070.44 423.134 1069.88 425.448C1069.31 427.716 1068.15 429.789 1066.5 431.451C1064.71 433.291 1062.46 434.619 1059.98 435.297C1058.09 435.926 1056.09 436.146 1054.11 435.944C1052.13 435.742 1050.22 435.122 1048.49 434.124C1044.86 431.846 1042.26 428.248 1041.22 424.088C1040.42 421.537 1040.21 418.839 1040.59 416.193C1040.97 413.547 1041.94 411.02 1043.43 408.799C1041.71 408.317 1039.9 408.189 1038.13 408.424L1037.75 406.642Z" fill="#133510"/>
</g>
<path id="A" d="M918.699 669.281C911.117 663.204 905.21 655.295 901.534 646.301L882.774 603.06L744.797 275H732.931L612.917 561.648C604.193 582.127 599.316 593.899 598.284 596.963C585.778 629.261 575.006 650.428 565.97 660.464C556.935 670.501 543.334 676.942 525.168 679.787V693.857H647.903V679.787C636.358 680.352 624.955 677.051 615.496 670.407C611.268 667.092 607.91 662.798 605.712 657.896C603.514 652.993 602.542 647.63 602.88 642.268C602.88 630.73 610.791 605.968 626.611 567.979L637.257 541.762L643.073 528.068L715.86 352.009L788.976 528.068L794.135 541.762L825.792 618.208C835.172 640.345 839.862 653.664 839.862 658.119C840.231 661.784 839.408 665.47 837.515 668.63C835.622 671.79 832.761 674.255 829.356 675.66C822.321 678.568 808.908 680.021 789.023 680.021V694.091H951.341V680.021C936.755 678.38 925.921 674.956 918.699 669.281Z" fill="#133510"/>
<path id="leaf-3" d="M617.091 525.206C623.282 489.469 610.151 445.478 610.151 445.478C614.966 468.407 616.545 491.897 614.84 515.264C614.789 515.506 614.656 515.722 614.464 515.878C614.272 516.034 614.032 516.119 613.785 516.119C613.538 516.119 613.298 516.034 613.106 515.878C612.914 515.722 612.781 515.506 612.73 515.264C608.556 499.693 599.645 487.124 598.66 468.365C597.159 444.915 605.367 409.741 605.367 409.741C607.477 420.199 625.768 448.433 625.768 448.433C648.655 492.565 620.515 521.923 617.091 525.206Z" fill="#133510"/>
<path id="leaf-2" d="M502 405.614C502 405.614 504.017 521.502 576.429 533.32C576.429 533.32 532.86 469.865 526.388 455.89C526.388 455.89 569.77 529.943 611.932 548.515C611.932 548.515 607.945 516.624 582.807 499.271C557.669 481.919 572.865 466.442 547.023 447.682C521.182 428.923 511.286 423.295 502 405.614Z" fill="#133510"/>
<g id="leaf-1">
<path d="M626.564 588.192C626.564 587.535 643.025 539.839 663.614 534.68C663.614 534.68 669.008 533.789 679.841 546.546C685.748 553.784 693.033 559.778 701.274 564.18L706.855 570.886C693.057 567.212 678.584 566.866 664.626 569.874C650.668 572.883 637.623 579.161 626.564 588.192Z" fill="#133510"/>
<path d="M801.404 576.937C790.788 572.376 779.141 570.756 767.684 572.247C767.684 572.247 716.658 574.31 706.715 570.887C701.53 568.951 696.837 565.892 692.973 561.929C690.581 559.584 688.284 557.239 685.516 555.176C677.635 548.942 670.264 542.088 663.474 534.681C708.826 524.035 785.412 564.227 789.773 566.478C720.55 521.971 665.35 530.554 665.35 530.554C677.216 526.567 712.249 516.108 727.914 524.269C736.154 528.845 745.198 531.79 754.552 532.945C758.5 533.255 762.36 534.272 765.949 535.947C788.929 547.249 801.404 576.937 801.404 576.937Z" fill="#133510"/>
</g>
</g>
</svg>
