<svg width="1440" height="1024" viewBox="0 0 1440 1024" fill="none" xmlns="http://www.w3.org/2000/svg">
<g id="frame-14">
<rect width="1440" height="1024" fill="white"/>
<g id="leaf-1">
<path d="M821.796 501.296C819.185 524.911 789.573 570.53 764.747 573.939C764.747 573.939 761.731 556.784 751.809 541.448C746.457 532.773 739.261 525.321 730.637 519.526L725.553 511.476C740.742 517.087 750.894 532.366 767.625 530.596C784.356 528.827 815.185 491.911 821.796 501.296Z" fill="#133510"/>
<path d="M641.791 534.166C640 519.016 693.773 530.85 707.818 530.596C707.818 530.596 760.5 532.376 767.625 530.596C773.472 533.259 753.248 545.595 757.113 550.26C759.527 553.033 761.828 555.796 764.747 558.313C772.993 565.862 796.998 534.771 803.705 543.442C747.182 549.496 646.588 537.068 641.791 534.166C730.637 479 803.705 543.442 803.705 543.442C788.682 546.304 808.5 569.42 735.316 592.605C705 595.942 688.536 576.255 677.532 573.939C672.853 573.15 668.416 571.62 664.435 569.42C639.052 554.723 641.791 534.166 641.791 534.166Z" fill="#133510"/>
</g>
<path id="leaf-3" d="M694.624 477.189C732.169 499.386 774.825 501.781 774.825 501.781C747.686 506.517 720.613 490.489 695.18 478.822C694.929 478.661 694.737 478.41 694.636 478.113C694.535 477.816 694.531 477.489 694.624 477.189C694.717 476.888 694.902 476.632 695.148 476.462C695.395 476.293 695.687 476.22 695.976 476.257C714.925 477.58 734.186 476.257 756.686 476.257C826.255 481.854 816.509 510.643 816.509 510.643C809.686 531.517 764.186 531.517 764.186 531.517C706.307 541.204 696.996 482.697 694.624 477.189Z" fill="#133510"/>
<path id="leaf-2" d="M789.5 479.5C789.5 479.5 627 400 643.375 539.783C643.375 539.783 685.921 505.062 697.5 494.5C697.5 494.5 666.879 496.697 643.375 539.783C643.375 539.783 667.281 567.355 677.269 536.729C687.256 506.102 717.86 544.243 729 512.5C740.14 480.757 789.5 520 789.5 479.5Z" fill="#133510"/>
</g>
</svg>
