<svg width="1440" height="1024" viewBox="0 0 1440 1024" fill="none" xmlns="http://www.w3.org/2000/svg">
<g id="frame-5">
<rect width="1440" height="1024" fill="white"/>
<g id="leaf-1">
<path d="M697 644C697 642.896 725.908 562.697 762.063 554.023C762.063 554.023 771.536 552.524 790.561 573.974C800.934 586.145 813.727 596.223 828.199 603.624L838 614.901C813.769 608.724 788.353 608.141 763.841 613.199C739.329 618.258 716.422 628.814 697 644Z" fill="#133510"/>
<path d="M1013 626C993.682 618.222 972.487 615.459 951.637 618.001C951.637 618.001 858.781 621.521 840.688 615.681C831.252 612.38 822.713 607.163 815.682 600.404C811.329 596.404 807.147 592.405 802.112 588.885C787.77 578.253 774.357 566.564 762 553.929C844.529 535.772 983.897 604.323 991.835 608.162C865.865 532.252 765.414 546.89 765.414 546.89C787.006 540.091 850.759 522.253 879.264 536.171C894.26 543.976 910.717 549 927.74 550.969C934.924 551.498 941.949 553.232 948.479 556.089C990.299 575.366 1013 626 1013 626Z" fill="#133510"/>
</g>
<path id="leaf-3" d="M637.232 536.705C624.017 472.845 574.682 408.053 574.682 408.053C597.163 443.174 614.849 481.389 627.224 521.584C627.298 522.022 627.226 522.473 627.021 522.861C626.815 523.249 626.487 523.551 626.093 523.716C625.699 523.88 625.263 523.898 624.856 523.765C624.449 523.633 624.098 523.359 623.86 522.989C607.153 499.74 584.836 484.663 571.152 453.96C553.616 415.762 543.98 351.5 543.98 351.5C554.097 367.577 601.476 402.594 601.476 402.594C666.448 461.127 640.567 528.938 637.232 536.705Z" fill="#133510"/>
<path id="leaf-2" d="M352 392.649C352 392.649 423.704 614.108 563.561 596.2C563.561 596.2 446.35 498.754 426.269 475.539C426.269 475.539 549.355 593.449 637.647 605.477C637.647 605.477 611.615 546.457 555.289 527.224C498.963 507.992 517.774 469.743 459.331 448.203C400.888 426.662 379.421 421.402 352 392.649Z" fill="#133510"/>
<path id="stem-five" d="M666.406 717.746C677.677 804.627 666.087 969.171 656 1024H677.182C682.225 960.947 694.211 801.883 677.182 697.112C656 566.792 709.515 464.707 662.642 279C695.145 450.589 647.385 571.136 666.406 717.746Z" fill="#133510"/>
</g>
</svg>
