<svg width="1440" height="1024" viewBox="0 0 1440 1024" fill="none" xmlns="http://www.w3.org/2000/svg">
<g id="frame-9">
<rect width="1440" height="1024" fill="white"/>
<g id="leaf-1">
<path d="M534.455 809.324C533.779 808.534 503.512 731.931 521.813 701.761C521.813 701.761 527.082 694.412 552.655 697.171C566.889 699.017 581.422 697.761 595.411 693.474L608.725 695.057C589.111 706.687 572.152 723.109 559.24 742.974C546.329 762.838 537.835 785.578 534.455 809.324Z" fill="#133510"/>
<path d="M726.139 588.134C708.965 595.695 693.473 607.907 681.287 623.49C681.287 623.49 622.486 687.594 607.241 695.657C599.141 699.688 590.516 701.823 581.985 701.91C576.811 702.088 571.749 702.154 566.406 703.112C550.835 705.429 535.26 706.411 519.828 706.05C563.363 638.875 694.484 592.766 701.914 590.096C575.3 622.306 517.978 699.004 517.978 699.004C528.179 680.038 559.596 625.56 586.355 616.06C600.712 611.389 614.413 603.86 626.711 593.883C631.725 589.467 637.335 585.974 643.272 583.573C681.867 568.86 726.139 588.134 726.139 588.134Z" fill="#133510"/>
</g>
<path id="leaf-3" d="M702.678 380.319C751.677 409.288 822.208 412.039 822.208 412.039C786.445 407.388 751.458 397.303 718.266 382.077C717.939 381.866 717.688 381.54 717.556 381.152C717.424 380.764 717.418 380.337 717.54 379.945C717.662 379.553 717.904 379.218 718.225 378.997C718.546 378.776 718.927 378.682 719.305 378.73C744.035 380.455 766.726 373.061 794.532 381.552C829.422 391.739 876.609 423.605 876.609 423.605C860.339 421.347 810.218 435.222 810.218 435.222C734.682 447.864 705.774 387.507 702.678 380.319Z" fill="#133510"/>
<path id="leaf-2" d="M562.527 270C562.527 270 370.003 331.123 383.021 467.629C383.021 467.629 469.235 357.548 489.637 338.938C489.637 338.938 385.646 453.939 373.712 539.22C373.712 539.22 425.142 516.207 442.739 462.247C460.335 408.286 493.04 428.024 512.668 372.096C532.295 316.169 537.214 295.524 562.527 270Z" fill="#133510"/>
</g>
</svg>
