<svg width="1440" height="1024" viewBox="0 0 1440 1024" fill="none" xmlns="http://www.w3.org/2000/svg">
<g id="frame-11">
<rect width="1440" height="1024" fill="white"/>
<g id="leaf-1">
<path d="M884.99 626.402C882.379 650.016 856.161 678.097 831.336 681.506C831.336 681.506 824.926 681.889 815.004 666.554C809.652 657.878 802.455 650.427 793.832 644.632L788.747 636.582C803.937 642.193 798.273 630.366 815.004 628.596C831.735 626.827 878.379 617.016 884.99 626.402Z" fill="#133510"/>
<path d="M689.17 632.166C687.379 617.016 741.152 628.85 755.197 628.596C755.197 628.596 807.879 630.376 815.004 628.596C820.851 631.259 800.626 643.595 804.492 648.26C806.906 651.033 809.207 653.795 812.126 656.313C820.371 663.862 828.173 672.186 834.879 680.857C778.357 686.911 693.966 635.068 689.17 632.166C776.879 666.554 834.879 680.857 834.879 680.857C819.856 683.718 772.41 694.771 755.197 684.267C746.198 678.441 735.915 674.255 724.91 671.939C720.231 671.15 715.795 669.62 711.814 667.42C686.431 652.723 689.17 632.166 689.17 632.166Z" fill="#133510"/>
</g>
<path id="leaf-3" d="M818.316 353.189C855.862 375.386 898.517 377.781 898.517 377.781C871.379 382.517 844.305 366.489 818.872 354.822C818.622 354.661 818.43 354.41 818.329 354.113C818.227 353.816 818.223 353.489 818.316 353.189C818.409 352.888 818.595 352.632 818.841 352.462C819.087 352.293 819.379 352.22 819.668 352.257C838.618 353.58 857.879 352.257 880.379 352.257C949.947 357.854 940.201 386.643 940.201 386.643C933.379 407.517 887.879 407.517 887.879 407.517C830 417.204 820.689 358.697 818.316 353.189Z" fill="#133510"/>
<path id="leaf-2" d="M589.379 385.517C589.379 385.517 501.986 396.626 509.375 474.103C509.375 474.103 558.307 411.624 569.887 401.062C569.887 401.062 532.879 431.017 509.375 474.103C509.375 474.103 533.281 501.675 543.269 471.048C553.256 440.422 571.818 451.625 582.958 419.882C594.098 388.139 592.879 397.017 589.379 385.517Z" fill="#133510"/>
</g>
</svg>
