<svg width="1440" height="1024" viewBox="0 0 1440 1024" fill="none" xmlns="http://www.w3.org/2000/svg">
<g id="frame-10">
<rect width="1440" height="1024" fill="white"/>
<g id="leaf-1">
<path d="M896.114 623.546C895.981 624.273 867.285 675.241 842.46 678.65C842.46 678.65 836.049 679.034 826.128 663.698C820.776 655.023 813.579 647.572 804.956 641.776L799.871 633.727C815.061 639.338 831.705 641.34 848.437 639.571C865.168 637.801 881.508 632.309 896.114 623.546Z" fill="#133510"/>
<path d="M688.371 616.83C700.226 622.917 713.892 625.994 727.937 625.741C727.937 625.741 789.598 629.478 800.866 634.276C806.713 636.939 811.75 640.739 815.616 645.405C818.029 648.178 820.331 650.94 823.25 653.457C831.495 661.006 839.007 669.155 845.713 677.826C789.191 683.88 705.09 632.212 700.293 629.31C774.713 684.713 842.656 681.999 842.656 681.999C827.633 684.861 783.534 691.916 766.321 681.412C757.322 675.585 747.039 671.4 736.034 669.083C731.355 668.295 726.919 666.764 722.938 664.565C697.555 649.867 688.371 616.83 688.371 616.83Z" fill="#133510"/>
</g>
<path id="leaf-3" d="M818.052 350.619C855.598 372.816 909.641 374.925 909.641 374.925C882.238 371.361 855.429 363.633 829.996 351.967C829.746 351.805 829.554 351.555 829.453 351.257C829.351 350.96 829.347 350.633 829.44 350.333C829.534 350.032 829.719 349.776 829.965 349.606C830.211 349.437 830.503 349.365 830.792 349.402C849.742 350.724 867.129 345.058 888.435 351.564C915.169 359.37 951.325 383.787 951.325 383.787C938.858 382.057 900.454 392.688 900.454 392.688C842.575 402.375 820.425 356.127 818.052 350.619Z" fill="#133510"/>
<path id="leaf-2" d="M622.381 359.079C622.381 359.079 513.11 393.771 520.499 471.247C520.499 471.247 569.431 408.768 581.011 398.206C581.011 398.206 521.988 463.478 515.215 511.88C515.215 511.88 544.405 498.819 554.393 468.193C564.38 437.566 582.942 448.769 594.082 417.026C605.222 385.283 608.014 373.566 622.381 359.079Z" fill="#133510"/>
</g>
</svg>
