<svg width="1440" height="1024" viewBox="0 0 1440 1024" fill="none" xmlns="http://www.w3.org/2000/svg">
<g id="frame-3">
<rect width="1440" height="1024" fill="white"/>
<path id="stem-three" d="M685.406 856.28C696.677 903.86 685.087 993.973 675 1024H696.182C701.225 989.469 713.211 902.358 696.182 844.98C675 773.609 728.515 717.703 681.642 616C714.145 709.971 666.385 775.988 685.406 856.28Z" fill="#133510"/>
<path id="leaf-1" d="M765 854C760.382 851.953 755.316 851.226 750.332 851.895C750.332 851.895 728.135 852.821 723.81 851.285C721.554 850.416 719.513 849.043 717.832 847.264C716.792 846.212 715.792 845.159 714.589 844.233C711.16 841.435 707.954 838.359 705 835.034C724.728 830.256 758.043 848.295 759.941 849.306C729.828 829.329 705.816 833.182 705.816 833.182C710.978 831.392 726.217 826.698 733.031 830.361C736.616 832.415 740.55 833.737 744.619 834.255C746.336 834.394 748.016 834.851 749.577 835.602C759.573 840.675 765 854 765 854Z" fill="#133510"/>
</g>
</svg>
