<svg width="1440" height="1024" viewBox="0 0 1440 1024" fill="none" xmlns="http://www.w3.org/2000/svg">
<g id="frame-4">
<rect width="1440" height="1024" fill="white"/>
<g id="leaf-1">
<path d="M716 814C716 813.583 725.841 783.286 738.149 780.009C738.149 780.009 741.374 779.442 747.85 787.546C751.382 792.144 755.737 795.951 760.663 798.747L764 803.007C755.751 800.673 747.099 800.453 738.754 802.364C730.41 804.275 722.612 808.263 716 814Z" fill="#133510"/>
<path d="M820 806C813.458 803.216 806.28 802.228 799.22 803.137C799.22 803.137 767.775 804.397 761.647 802.307C758.452 801.125 755.56 799.258 753.179 796.839C751.705 795.408 750.289 793.976 748.584 792.717C743.727 788.911 739.184 784.728 735 780.206C762.948 773.708 810.145 798.242 812.832 799.616C770.173 772.448 736.156 777.687 736.156 777.687C743.468 775.254 765.058 768.87 774.711 773.851C779.789 776.644 785.362 778.442 791.127 779.147C793.56 779.336 795.939 779.957 798.15 780.979C812.312 787.879 820 806 820 806Z" fill="#133510"/>
</g>
<path id="leaf-2" d="M682.917 682.315C677.459 641.549 650.168 598.699 650.168 598.699C662.381 621.75 671.568 646.55 677.459 672.377C677.487 672.656 677.425 672.937 677.285 673.173C677.145 673.409 676.935 673.586 676.69 673.673C676.445 673.76 676.18 673.753 675.939 673.653C675.698 673.553 675.496 673.366 675.366 673.123C666.177 657.789 653.264 647.369 646.202 627.465C637.106 602.681 633.831 561.811 633.831 561.811C639.316 572.355 666.61 596.372 666.61 596.372C703.618 635.928 685.246 677.562 682.917 682.315Z" fill="#133510"/>
<path id="stem-four" d="M695.406 793.796C706.677 859.102 695.087 982.786 685 1024H706.182C711.225 976.604 723.211 857.04 706.182 778.286C685 680.327 738.515 603.592 691.642 464C724.145 592.98 676.385 683.592 695.406 793.796Z" fill="#133510"/>
</g>
</svg>
