<svg width="1440" height="1024" viewBox="0 0 1440 1024" fill="none" xmlns="http://www.w3.org/2000/svg">
<g id="frame-13">
<rect width="1440" height="1024" fill="white"/>
<g id="leaf-1">
<path d="M827.795 542.296C825.185 565.911 798.967 593.991 774.141 597.4C774.141 597.4 767.731 597.784 757.809 582.448C752.457 573.773 745.261 566.322 736.637 560.526L731.553 552.477C746.742 558.088 741.078 546.261 757.809 544.491C774.54 542.721 821.184 532.911 827.795 542.296Z" fill="#133510"/>
<path d="M631.975 548.06C630.184 532.911 683.957 544.744 698.003 544.491C698.003 544.491 750.684 546.27 757.809 544.491C763.656 547.153 743.432 559.489 747.297 564.155C749.711 566.928 752.012 569.69 754.931 572.207C763.177 579.756 770.978 588.08 777.684 596.751C721.162 602.805 636.772 550.962 631.975 548.06C719.684 582.448 777.684 596.751 777.684 596.751C762.662 599.613 715.216 610.666 698.003 600.162C689.003 594.335 678.72 590.15 667.716 587.833C663.037 587.045 658.601 585.514 654.619 583.315C629.236 568.617 631.975 548.06 631.975 548.06Z" fill="#133510"/>
</g>
<path id="leaf-3" d="M730.624 423.189C768.169 445.386 810.825 447.781 810.825 447.781C783.686 452.517 756.613 436.489 731.18 424.822C730.929 424.661 730.737 424.41 730.636 424.113C730.535 423.816 730.531 423.489 730.624 423.189C730.717 422.888 730.902 422.632 731.148 422.462C731.395 422.293 731.687 422.22 731.976 422.257C750.925 423.58 770.186 422.257 792.686 422.257C862.255 427.854 852.509 456.643 852.509 456.643C845.686 477.517 800.186 477.517 800.186 477.517C742.307 487.204 732.996 428.697 730.624 423.189Z" fill="#133510"/>
<path id="leaf-2" d="M698.379 416.196C698.379 416.196 610.986 427.306 618.375 504.783C618.375 504.783 667.307 442.304 678.887 431.742C678.887 431.742 641.879 461.697 618.375 504.783C618.375 504.783 642.281 532.355 652.269 501.728C662.256 471.102 680.818 482.305 691.958 450.562C703.098 418.819 701.879 427.697 698.379 416.196Z" fill="#133510"/>
</g>
</svg>
