<svg width="1440" height="1024" viewBox="0 0 1440 1024" fill="none" xmlns="http://www.w3.org/2000/svg">
<g id="frame-12">
<rect width="1440" height="1024" fill="white"/>
<g id="leaf-1">
<path d="M869.795 585.296C867.184 608.911 840.966 636.991 816.141 640.4C816.141 640.4 809.731 640.784 799.809 625.448C794.457 616.773 787.261 609.322 778.637 603.526L773.553 595.477C788.742 601.088 783.078 589.261 799.809 587.491C816.54 585.721 863.184 575.911 869.795 585.296Z" fill="#133510"/>
<path d="M673.975 591.06C672.184 575.911 725.957 587.744 740.003 587.491C740.003 587.491 792.684 589.27 799.809 587.491C805.656 590.153 785.432 602.489 789.297 607.155C791.711 609.928 794.012 612.69 796.931 615.207C805.177 622.756 812.978 631.08 819.684 639.751C763.162 645.805 678.772 593.962 673.975 591.06C761.684 625.448 819.684 639.751 819.684 639.751C804.662 642.613 757.216 653.666 740.003 643.162C731.003 637.335 720.72 633.15 709.716 630.833C705.037 630.045 700.6 628.514 696.619 626.315C671.236 611.617 673.975 591.06 673.975 591.06Z" fill="#133510"/>
</g>
<path id="leaf-3" d="M786.624 403.189C824.169 425.386 866.825 427.781 866.825 427.781C839.687 432.517 812.613 416.489 787.18 404.822C786.929 404.661 786.737 404.41 786.636 404.113C786.535 403.816 786.531 403.489 786.624 403.189C786.717 402.888 786.902 402.632 787.149 402.462C787.395 402.293 787.687 402.22 787.976 402.257C806.926 403.58 826.187 402.257 848.687 402.257C918.255 407.854 908.509 436.643 908.509 436.643C901.687 457.517 856.187 457.517 856.187 457.517C798.307 467.204 788.996 408.697 786.624 403.189Z" fill="#133510"/>
<path id="leaf-2" d="M656.379 402.196C656.379 402.196 568.986 413.306 576.375 490.783C576.375 490.783 625.307 428.304 636.887 417.742C636.887 417.742 599.879 447.697 576.375 490.783C576.375 490.783 600.281 518.355 610.269 487.728C620.256 457.102 638.818 468.305 649.958 436.562C661.098 404.819 659.879 413.697 656.379 402.196Z" fill="#133510"/>
</g>
</svg>
