<svg width="1440" height="1024" viewBox="0 0 1440 1024" fill="none" xmlns="http://www.w3.org/2000/svg">
<g id="logoani" clip-path="url(#clip0_2_14)">
<rect width="1440" height="1024" fill="white"/>
<g id="stem1">
<path id="stem-one" d="M712.487 974C719.099 992.55 722.497 1012.46 716.987 1023.5H728.558C731.314 1010.8 722.773 987.25 716.987 974C707.599 952.5 716.987 902 716.987 902C714.232 904.208 705.875 955.45 712.487 974Z" fill="#133510"/>
</g>
<g id="stem2">
<path id="stem-two" d="M705.415 900.842C712.896 926.403 718.308 992.533 705.415 1024H725.206C731.652 987.813 730.743 938.602 717.206 900.842C696.291 842.5 746.706 781.5 705.415 701C733.706 777.5 689.944 847.977 705.415 900.842Z" fill="#133510"/>
</g>
<g id="stem3">
<path id="stem-three" d="M712.406 856.28C723.677 903.86 712.087 993.973 702 1024H723.182C728.225 989.469 740.211 902.358 723.182 844.98C702 773.609 755.515 717.703 708.642 616C741.145 709.971 693.385 775.988 712.406 856.28Z" fill="#133510"/>
<path id="leaf-1" d="M792 854C787.382 851.953 782.316 851.226 777.332 851.895C777.332 851.895 755.135 852.821 750.81 851.285C748.554 850.416 746.513 849.043 744.832 847.264C743.792 846.212 742.792 845.159 741.589 844.233C738.16 841.435 734.954 838.359 732 835.034C751.728 830.256 785.043 848.295 786.941 849.306C756.828 829.329 732.816 833.182 732.816 833.182C737.978 831.392 753.217 826.698 760.031 830.361C763.616 832.415 767.55 833.737 771.619 834.255C773.336 834.394 775.016 834.851 776.577 835.602C786.573 840.675 792 854 792 854Z" fill="#133510"/>
</g>
<g id="stem4">
<g id="leaf-1_2">
<path d="M733 826C733 825.583 742.841 795.286 755.149 792.009C755.149 792.009 758.374 791.442 764.85 799.546C768.382 804.144 772.737 807.951 777.663 810.747L781 815.007C772.751 812.673 764.099 812.453 755.754 814.364C747.41 816.275 739.612 820.263 733 826Z" fill="#133510"/>
<path d="M837 818C830.458 815.216 823.28 814.228 816.22 815.137C816.22 815.137 784.775 816.397 778.647 814.307C775.452 813.125 772.56 811.258 770.179 808.839C768.705 807.408 767.289 805.976 765.584 804.717C760.727 800.911 756.184 796.728 752 792.206C779.948 785.708 827.145 810.242 829.832 811.616C787.173 784.448 753.156 789.687 753.156 789.687C760.468 787.254 782.058 780.87 791.711 785.851C796.789 788.644 802.362 790.442 808.127 791.147C810.56 791.336 812.939 791.957 815.15 792.979C829.312 799.879 837 818 837 818Z" fill="#133510"/>
</g>
<path id="leaf-2" d="M699.917 694.315C694.459 653.549 667.168 610.699 667.168 610.699C679.381 633.75 688.568 658.55 694.459 684.377C694.487 684.656 694.425 684.937 694.285 685.173C694.145 685.409 693.935 685.586 693.69 685.673C693.445 685.76 693.18 685.753 692.939 685.653C692.698 685.553 692.496 685.366 692.366 685.123C683.177 669.789 670.264 659.369 663.202 639.465C654.106 614.681 650.831 573.811 650.831 573.811C656.316 584.355 683.61 608.372 683.61 608.372C720.618 647.928 702.246 689.562 699.917 694.315Z" fill="#133510"/>
<path id="stem-four" d="M712.406 805.796C723.677 871.102 712.087 994.786 702 1036H723.182C728.225 988.604 740.211 869.04 723.182 790.286C702 692.327 755.515 615.592 708.642 476C741.145 604.98 693.385 695.592 712.406 805.796Z" fill="#133510"/>
</g>
<g id="stem5">
<g id="leaf-1_3">
<path d="M747 644C747 642.896 775.908 562.697 812.063 554.023C812.063 554.023 821.536 552.524 840.561 573.974C850.934 586.145 863.727 596.223 878.199 603.624L888 614.901C863.769 608.724 838.353 608.141 813.841 613.199C789.329 618.258 766.422 628.814 747 644Z" fill="#133510"/>
<path d="M1063 626C1043.68 618.222 1022.49 615.459 1001.64 618.001C1001.64 618.001 908.781 621.521 890.688 615.681C881.252 612.38 872.713 607.163 865.682 600.404C861.329 596.404 857.147 592.405 852.112 588.885C837.77 578.253 824.357 566.564 812 553.929C894.529 535.772 1033.9 604.323 1041.83 608.162C915.865 532.252 815.414 546.89 815.414 546.89C837.006 540.091 900.759 522.253 929.264 536.171C944.26 543.976 960.717 549 977.74 550.969C984.924 551.498 991.949 553.232 998.479 556.089C1040.3 575.366 1063 626 1063 626Z" fill="#133510"/>
</g>
<path id="leaf-3" d="M687.232 536.705C674.017 472.845 624.682 408.053 624.682 408.053C647.163 443.174 664.849 481.389 677.224 521.584C677.298 522.022 677.226 522.473 677.021 522.861C676.815 523.249 676.487 523.551 676.093 523.716C675.699 523.88 675.263 523.898 674.856 523.765C674.449 523.633 674.098 523.359 673.86 522.989C657.153 499.74 634.836 484.663 621.152 453.96C603.616 415.762 593.98 351.5 593.98 351.5C604.097 367.577 651.476 402.594 651.476 402.594C716.448 461.127 690.567 528.938 687.232 536.705Z" fill="#133510"/>
<path id="leaf-2_2" d="M402 392.649C402 392.649 473.704 614.108 613.561 596.2C613.561 596.2 496.35 498.754 476.269 475.539C476.269 475.539 599.355 593.449 687.647 605.477C687.647 605.477 661.615 546.457 605.289 527.224C548.963 507.992 567.774 469.743 509.331 448.203C450.888 426.662 429.421 421.402 402 392.649Z" fill="#133510"/>
<path id="stem-five" d="M716.406 717.746C727.677 804.627 716.087 969.171 706 1024H727.182C732.225 960.947 744.211 801.883 727.182 697.112C706 566.792 759.515 464.707 712.642 279C745.145 450.589 697.385 571.136 716.406 717.746Z" fill="#133510"/>
</g>
<g id="stem6">
<g id="leaf-1_4">
<path d="M749 680.843C749.297 679.779 798.694 610.3 835.851 611.662C835.851 611.662 845.378 612.764 857.938 638.537C864.659 653.049 874.272 666.195 886.223 677.213L892.633 690.709C870.954 678.247 846.629 670.854 821.66 669.139C796.69 667.424 771.788 671.435 749 680.843Z" fill="#133510"/>
<path d="M1058.21 748.431C1041.69 735.748 1022.02 727.39 1001.26 724.235C1001.26 724.235 910.871 702.67 895.012 692.183C886.811 686.467 879.988 679.146 875.032 670.746C871.914 665.724 868.961 660.748 865.057 656.005C854.1 641.909 844.322 627.045 835.815 611.555C920.188 616.245 1036.01 719.73 1042.62 725.562C941.685 618.589 840.996 605.692 840.996 605.692C863.621 604.946 929.822 604.899 953.538 625.966C965.884 637.513 980.386 646.775 996.253 653.247C1003.03 655.687 1009.33 659.246 1014.85 663.752C1049.95 693.56 1058.21 748.431 1058.21 748.431Z" fill="#133510"/>
</g>
<path id="leaf-3_2" d="M737.094 549.029C753.209 485.84 737.267 405.978 737.267 405.978C742.079 447.399 741.224 489.5 734.727 531.051C734.602 531.478 734.34 531.852 733.985 532.111C733.63 532.369 733.203 532.497 732.777 532.472C732.35 532.448 731.95 532.272 731.643 531.975C731.335 531.677 731.139 531.277 731.088 530.84C726.262 502.621 712.813 479.287 713.971 445.693C714.954 403.673 734.461 341.69 734.461 341.69C736.507 360.575 763.743 412.817 763.743 412.817C796.483 493.906 743.497 543.51 737.094 549.029Z" fill="#133510"/>
<path id="leaf-2_3" d="M530.737 332C530.737 332 498.28 562.504 631.867 607.615C631.867 607.615 569.13 468.697 561.235 439.035C561.235 439.035 620.299 598.924 694.421 648.382C694.421 648.382 696.846 583.922 654.619 541.977C612.393 500.031 646.047 473.874 602.927 428.927C559.806 383.979 542.807 369.854 530.737 332Z" fill="#133510"/>
<path id="stem-six" d="M743.954 590C663.479 732.581 693.599 875 712.819 1024H729.103C699.365 779 700.456 721.5 757.023 608.5C821.6 479.5 860.194 460 835.438 290C860.426 461.589 784.874 517.5 743.954 590Z" fill="#133510"/>
</g>
<g id="stem7">
<g id="leaf-1_5">
<path d="M765 609.843C765.297 608.779 814.695 539.3 851.852 540.662C851.852 540.662 861.378 541.764 873.939 567.537C880.659 582.049 890.272 595.195 902.223 606.213L908.633 619.709C886.954 607.247 862.629 599.854 837.66 598.139C812.69 596.424 787.788 600.435 765 609.843Z" fill="#133510"/>
<path d="M1074.21 677.431C1057.69 664.748 1038.02 656.39 1017.26 653.235C1017.26 653.235 926.871 631.67 911.013 621.183C902.811 615.467 895.988 608.146 891.032 599.746C887.914 594.724 884.961 589.748 881.057 585.005C870.1 570.909 860.322 556.045 851.816 540.555C936.188 545.245 1052.01 648.73 1058.62 654.562C957.685 547.589 856.996 534.692 856.996 534.692C879.621 533.946 945.822 533.899 969.538 554.966C981.884 566.513 996.386 575.775 1012.25 582.247C1019.03 584.687 1025.33 588.246 1030.85 592.752C1065.95 622.56 1074.21 677.431 1074.21 677.431Z" fill="#133510"/>
</g>
<path id="leaf-3_3" d="M701.782 424.736C749.989 380.818 780.587 305.348 780.587 305.348C761.829 342.591 737.965 377.285 709.691 408.419C709.351 408.706 708.927 408.874 708.488 408.895C708.05 408.916 707.623 408.788 707.28 408.533C706.938 408.278 706.7 407.911 706.607 407.494C706.513 407.077 706.57 406.634 706.767 406.241C718.254 380.018 719.851 353.132 739.291 325.71C763.217 291.153 813.593 250.108 813.593 250.108C804.918 267.007 798.94 325.618 798.94 325.618C781.697 411.351 710.165 423.647 701.782 424.736Z" fill="#133510"/>
<path id="leaf-2_4" d="M594.528 165C594.528 165 455.244 351.509 550.688 455.292C550.688 455.292 562.469 303.32 569.808 273.515C569.808 273.515 544.724 442.109 585.937 521.113C585.937 521.113 619.055 465.758 602.197 408.676C585.338 351.595 627.423 344.84 611.225 284.697C595.026 224.554 586.912 203.995 594.528 165Z" fill="#133510"/>
<path id="stem-seven" d="M482.5 623.5C393.829 756.183 430 828.5 442 1024H468.103C438.365 779 442.657 757.445 496 648C555.219 526.5 790.669 598 763 408C787.988 579.589 549.998 522.5 482.5 623.5Z" fill="#133510"/>
</g>
<g id="wind1">
<path id="path-1" d="M582.5 360C589.5 323.833 628.9 246 730.5 224C857.5 196.5 895 281 979.5 262C1064 243 1115.5 286 1119 337.5M768 360C764 398.833 786.3 480.3 907.5 495.5C1028.7 510.7 1086.33 491.5 1100 480M936.5 618C937.167 654.667 961.2 736.9 1052 772.5C1165.5 817 1213.5 784 1256.5 762C1299.5 740 1332.5 546 1322 504.5C1313.6 471.3 1274.83 434.333 1256.5 420" stroke="black"/>
<g id="leaf-1_6">
<path d="M794.994 580.505C795.897 579.834 877.469 556.613 904.604 583.285C904.604 583.285 911.081 590.743 904.099 620.596C899.903 637.162 898.76 654.594 900.735 671.881L896.953 687.398C888.567 662.232 874.952 639.42 857.227 620.837C839.502 602.254 818.174 588.432 794.994 580.505Z" fill="#133510"/>
<path d="M984.446 844.213C979.723 822.61 970.074 802.232 956.51 785.216C956.51 785.216 902.14 704.941 896.598 685.54C893.907 675.275 893.196 664.7 894.519 654.575C895.195 648.413 895.966 642.403 895.89 635.912C896.145 617.075 897.736 598.453 900.645 580.224C960.605 642.914 985.043 805.931 986.485 815.178C975.197 659.797 907.994 579.195 907.994 579.195C925.268 594.417 974.537 640.649 979.615 673.932C981.912 691.719 987.176 709.2 995.119 725.423C998.705 732.095 1001.27 739.321 1002.69 746.754C1011.02 794.925 984.446 844.213 984.446 844.213Z" fill="#133510"/>
</g>
<path id="leaf-3_4" d="M630.358 767.854C621.589 701.702 577.399 632.115 577.399 632.115C597.167 669.542 612.019 709.801 621.525 751.717C621.569 752.17 621.469 752.626 621.241 753.008C621.014 753.391 620.672 753.677 620.274 753.818C619.876 753.959 619.446 753.947 619.055 753.784C618.664 753.621 618.337 753.317 618.128 752.922C603.25 728.021 582.322 711.084 570.905 678.775C556.198 638.543 550.969 572.226 550.969 572.226C559.847 589.347 604.079 628.379 604.079 628.379C664.04 692.645 634.147 760.148 630.358 767.854Z" fill="#133510"/>
<path id="leaf-2_5" d="M545.416 224.519C545.416 224.519 594.091 459.001 732.726 452.648C732.726 452.648 627.462 342.056 610.061 316.389C610.061 316.389 719.089 448.582 804.343 468.622C804.343 468.622 784.595 405.533 731.329 380.833C678.064 356.133 700.192 318.335 645.078 291.073C589.965 263.81 569.463 256.53 545.416 224.519Z" fill="#133510"/>
</g>
<g id="wind2">
<path id="leaf2path" d="M678.5 361.5C692.667 384.833 747.7 429.5 854.5 421.5C988 411.5 988 261.5 972 235.5C956 209.5 890.5 107.5 790.5 117.5C710.5 125.5 682.5 199.5 678.5 235.5C676.333 304.833 739.6 443.5 1010 443.5C1280.4 443.5 1274.67 543.167 1238 593" stroke="black"/>
<path id="leaf3path" d="M610.5 671L418.5 783C367.833 810.333 252.9 836.2 198.5 721C130.5 577 282.5 514 344.5 557.5C406.5 601 418.5 797 498.5 849C578.5 901 732.424 860.914 768.5 829C820.5 783 836.5 711.667 854.5 671" stroke="black"/>
<path id="leaf1path" d="M934 685C940.667 735.667 982.8 839 1098 847C1213.2 855 1269.85 809 1256 739C1231.5 615.167 1096.1 475.4 750.5 907" stroke="black"/>
<g id="leaf-1_7">
<path d="M628.455 782.324C627.779 781.534 597.512 704.931 615.813 674.761C615.813 674.761 621.082 667.412 646.655 670.171C660.889 672.017 675.422 670.761 689.411 666.474L702.725 668.057C683.111 679.687 666.152 696.109 653.24 715.974C640.329 735.838 631.835 758.578 628.455 782.324Z" fill="#133510"/>
<path d="M820.139 561.134C802.965 568.695 787.473 580.907 775.287 596.49C775.287 596.49 716.486 660.594 701.241 668.657C693.141 672.688 684.516 674.823 675.985 674.91C670.811 675.088 665.749 675.154 660.406 676.112C644.835 678.429 629.26 679.411 613.828 679.05C657.363 611.875 788.484 565.766 795.914 563.096C669.3 595.306 611.978 672.004 611.978 672.004C622.179 653.038 653.596 598.56 680.355 589.06C694.712 584.389 708.413 576.86 720.711 566.883C725.725 562.467 731.335 558.974 737.272 556.573C775.867 541.86 820.139 561.134 820.139 561.134Z" fill="#133510"/>
</g>
<path id="leaf-3_5" d="M796.678 353.319C845.677 382.288 916.208 385.039 916.208 385.039C880.445 380.388 845.458 370.303 812.266 355.077C811.939 354.866 811.688 354.54 811.556 354.152C811.424 353.764 811.418 353.337 811.54 352.945C811.662 352.553 811.904 352.218 812.225 351.997C812.546 351.776 812.927 351.682 813.305 351.73C838.035 353.455 860.726 346.061 888.532 354.552C923.422 364.739 970.609 396.605 970.609 396.605C954.339 394.347 904.218 408.222 904.218 408.222C828.682 420.864 799.774 360.507 796.678 353.319Z" fill="#133510"/>
<path id="leaf-2_6" d="M656.527 243C656.527 243 464.003 304.123 477.021 440.629C477.021 440.629 563.235 330.548 583.637 311.938C583.637 311.938 479.646 426.939 467.712 512.22C467.712 512.22 519.142 489.207 536.739 435.247C554.335 381.286 587.04 401.024 606.668 345.096C626.295 289.169 631.214 268.524 656.527 243Z" fill="#133510"/>
</g>
<g id="wind3">
<path id="leaf2path_2" d="M567 360.5C586.833 315.333 664.2 229.9 815 249.5C965.8 269.1 1025.5 389.333 1036.5 447" stroke="black"/>
<path id="leaf3path_2" d="M914.5 400.5C943.333 432 989.5 526.1 943.5 650.5C897.5 774.9 772.333 782.333 715.5 770.5" stroke="black"/>
<path id="leaf1path_2" d="M682 664C636.167 682.5 527.7 705.3 460.5 648.5C376.5 577.5 385.5 363 485 283" stroke="black"/>
<g id="leaf-1_8">
<path d="M892.114 623.546C891.981 624.273 863.285 675.241 838.46 678.65C838.46 678.65 832.049 679.034 822.128 663.698C816.776 655.023 809.579 647.572 800.956 641.776L795.871 633.727C811.061 639.338 827.705 641.34 844.437 639.571C861.168 637.801 877.508 632.309 892.114 623.546Z" fill="#133510"/>
<path d="M684.371 616.83C696.226 622.917 709.892 625.994 723.937 625.741C723.937 625.741 785.598 629.478 796.866 634.276C802.713 636.939 807.75 640.739 811.616 645.405C814.029 648.178 816.331 650.94 819.25 653.457C827.495 661.006 835.007 669.155 841.713 677.826C785.191 683.88 701.09 632.212 696.293 629.31C770.713 684.713 838.656 681.999 838.656 681.999C823.633 684.861 779.534 691.916 762.321 681.412C753.322 675.585 743.039 671.4 732.034 669.083C727.355 668.295 722.919 666.764 718.938 664.565C693.555 649.867 684.371 616.83 684.371 616.83Z" fill="#133510"/>
</g>
<path id="leaf-3_6" d="M814.052 350.619C851.598 372.816 905.641 374.925 905.641 374.925C878.238 371.361 851.429 363.633 825.996 351.967C825.746 351.805 825.554 351.555 825.453 351.257C825.351 350.96 825.347 350.633 825.44 350.333C825.534 350.032 825.719 349.776 825.965 349.606C826.211 349.437 826.503 349.365 826.792 349.402C845.742 350.724 863.129 345.058 884.435 351.564C911.169 359.37 947.325 383.787 947.325 383.787C934.858 382.057 896.454 392.688 896.454 392.688C838.575 402.375 816.425 356.127 814.052 350.619Z" fill="#133510"/>
<path id="leaf-2_7" d="M618.381 359.079C618.381 359.079 509.11 393.771 516.499 471.247C516.499 471.247 565.431 408.768 577.011 398.206C577.011 398.206 517.988 463.478 511.215 511.88C511.215 511.88 540.405 498.819 550.393 468.193C560.38 437.566 578.942 448.769 590.082 417.026C601.222 385.283 604.014 373.566 618.381 359.079Z" fill="#133510"/>
</g>
<g id="morph1">
<g id="leaf-1_9">
<path d="M884.99 626.402C882.379 650.016 856.161 678.097 831.336 681.506C831.336 681.506 824.926 681.889 815.004 666.554C809.652 657.878 802.455 650.427 793.832 644.632L788.747 636.582C803.937 642.193 798.273 630.366 815.004 628.596C831.735 626.827 878.379 617.016 884.99 626.402Z" fill="#133510"/>
<path d="M689.17 632.166C687.379 617.016 741.152 628.85 755.197 628.596C755.197 628.596 807.879 630.376 815.004 628.596C820.851 631.259 800.626 643.595 804.492 648.26C806.906 651.033 809.207 653.795 812.126 656.313C820.371 663.862 828.173 672.186 834.879 680.857C778.357 686.911 693.966 635.068 689.17 632.166C776.879 666.554 834.879 680.857 834.879 680.857C819.856 683.718 772.41 694.771 755.197 684.267C746.198 678.441 735.915 674.255 724.91 671.939C720.231 671.15 715.795 669.62 711.814 667.42C686.431 652.723 689.17 632.166 689.17 632.166Z" fill="#133510"/>
</g>
<path id="leaf-3_7" d="M818.316 353.189C855.862 375.386 898.517 377.781 898.517 377.781C871.379 382.517 844.305 366.489 818.872 354.822C818.622 354.661 818.43 354.41 818.329 354.113C818.227 353.816 818.223 353.489 818.316 353.189C818.409 352.888 818.595 352.632 818.841 352.462C819.087 352.293 819.379 352.22 819.668 352.257C838.618 353.58 857.879 352.257 880.379 352.257C949.947 357.854 940.201 386.643 940.201 386.643C933.379 407.517 887.879 407.517 887.879 407.517C830 417.204 820.689 358.697 818.316 353.189Z" fill="#133510"/>
<path id="leaf-2_8" d="M589.379 385.517C589.379 385.517 501.986 396.626 509.375 474.103C509.375 474.103 558.307 411.624 569.887 401.062C569.887 401.062 532.879 431.017 509.375 474.103C509.375 474.103 533.281 501.675 543.269 471.048C553.256 440.422 571.818 451.625 582.958 419.882C594.098 388.139 592.879 397.017 589.379 385.517Z" fill="#133510"/>
</g>
<g id="morph2">
<g id="leaf-1_10">
<path d="M852.795 581.296C850.184 604.911 823.966 632.991 799.141 636.4C799.141 636.4 792.731 636.784 782.809 621.448C777.457 612.773 770.261 605.322 761.637 599.526L756.553 591.477C771.742 597.088 766.078 585.261 782.809 583.491C799.54 581.721 846.184 571.911 852.795 581.296Z" fill="#133510"/>
<path d="M656.975 587.06C655.184 571.911 708.957 583.744 723.003 583.491C723.003 583.491 775.684 585.27 782.809 583.491C788.656 586.153 768.432 598.489 772.297 603.155C774.711 605.928 777.012 608.69 779.931 611.207C788.177 618.756 795.978 627.08 802.684 635.751C746.162 641.805 661.772 589.962 656.975 587.06C744.684 621.448 802.684 635.751 802.684 635.751C787.662 638.613 740.216 649.666 723.003 639.162C714.003 633.335 703.72 629.15 692.716 626.833C688.037 626.045 683.6 624.514 679.619 622.315C654.236 607.617 656.975 587.06 656.975 587.06Z" fill="#133510"/>
</g>
<path id="leaf-3_8" d="M769.624 399.189C807.169 421.386 849.825 423.781 849.825 423.781C822.687 428.517 795.613 412.489 770.18 400.822C769.929 400.661 769.737 400.41 769.636 400.113C769.535 399.816 769.531 399.489 769.624 399.189C769.717 398.888 769.902 398.632 770.149 398.462C770.395 398.293 770.687 398.22 770.976 398.257C789.926 399.58 809.187 398.257 831.687 398.257C901.255 403.854 891.509 432.643 891.509 432.643C884.687 453.517 839.187 453.517 839.187 453.517C781.307 463.204 771.996 404.697 769.624 399.189Z" fill="#133510"/>
<path id="leaf-2_9" d="M639.379 398.196C639.379 398.196 551.986 409.306 559.375 486.783C559.375 486.783 608.307 424.304 619.887 413.742C619.887 413.742 582.879 443.697 559.375 486.783C559.375 486.783 583.281 514.355 593.269 483.728C603.256 453.102 621.818 464.304 632.958 432.562C644.098 400.819 642.879 409.697 639.379 398.196Z" fill="#133510"/>
</g>
<g id="morph3">
<g id="leaf-1_11">
<path d="M817.795 549.296C815.185 572.911 788.967 600.991 764.141 604.4C764.141 604.4 757.731 604.784 747.809 589.448C742.457 580.773 735.261 573.322 726.637 567.526L721.553 559.477C736.742 565.088 731.078 553.261 747.809 551.491C764.54 549.721 811.184 539.911 817.795 549.296Z" fill="#133510"/>
<path d="M621.975 555.06C620.184 539.911 673.957 551.744 688.003 551.491C688.003 551.491 740.684 553.27 747.809 551.491C753.656 554.153 733.432 566.489 737.297 571.155C739.711 573.928 742.012 576.69 744.931 579.207C753.177 586.756 760.978 595.08 767.684 603.751C711.162 609.805 626.772 557.962 621.975 555.06C709.684 589.448 767.684 603.751 767.684 603.751C752.662 606.613 705.216 617.666 688.003 607.162C679.003 601.335 668.72 597.15 657.716 594.833C653.037 594.045 648.601 592.514 644.619 590.315C619.236 575.617 621.975 555.06 621.975 555.06Z" fill="#133510"/>
</g>
<path id="leaf-3_9" d="M720.624 430.189C758.169 452.386 800.825 454.781 800.825 454.781C773.686 459.517 746.613 443.489 721.18 431.822C720.929 431.661 720.737 431.41 720.636 431.113C720.535 430.816 720.53 430.489 720.624 430.189C720.717 429.888 720.902 429.632 721.148 429.462C721.395 429.293 721.687 429.22 721.976 429.257C740.925 430.58 760.186 429.257 782.686 429.257C852.255 434.854 842.509 463.643 842.509 463.643C835.686 484.517 790.186 484.517 790.186 484.517C732.307 494.204 722.996 435.697 720.624 430.189Z" fill="#133510"/>
<path id="leaf-2_10" d="M688.379 423.196C688.379 423.196 600.986 434.306 608.375 511.783C608.375 511.783 657.307 449.304 668.887 438.742C668.887 438.742 631.879 468.697 608.375 511.783C608.375 511.783 632.281 539.355 642.269 508.728C652.256 478.102 670.818 489.304 681.958 457.562C693.098 425.819 691.879 434.697 688.379 423.196Z" fill="#133510"/>
</g>
<g id="morph4">
<g id="leaf-1_12">
<path d="M816.796 497.296C814.185 520.911 784.573 566.53 759.747 569.939C759.747 569.939 756.731 552.784 746.809 537.448C741.457 528.773 734.261 521.321 725.637 515.526L720.553 507.476C735.742 513.087 745.894 528.366 762.625 526.596C779.356 524.827 810.185 487.911 816.796 497.296Z" fill="#133510"/>
<path d="M636.791 530.166C635 515.016 688.773 526.85 702.818 526.596C702.818 526.596 755.5 528.376 762.625 526.596C768.472 529.259 748.248 541.595 752.113 546.26C754.527 549.033 756.828 551.796 759.747 554.313C767.993 561.862 791.998 530.771 798.705 539.442C742.182 545.496 641.588 533.068 636.791 530.166C725.637 475 798.705 539.442 798.705 539.442C783.682 542.304 803.5 565.42 730.316 588.605C700 591.942 683.536 572.255 672.532 569.939C667.853 569.15 663.416 567.62 659.435 565.42C634.052 550.723 636.791 530.166 636.791 530.166Z" fill="#133510"/>
</g>
<path id="leaf-3_10" d="M689.624 473.189C727.169 495.386 769.825 497.781 769.825 497.781C742.686 502.517 715.613 486.489 690.18 474.822C689.929 474.661 689.737 474.41 689.636 474.113C689.535 473.816 689.531 473.489 689.624 473.189C689.717 472.888 689.902 472.632 690.148 472.462C690.395 472.293 690.687 472.22 690.976 472.257C709.925 473.58 729.186 472.257 751.686 472.257C821.255 477.854 811.509 506.643 811.509 506.643C804.686 527.517 759.186 527.517 759.186 527.517C701.307 537.204 691.996 478.697 689.624 473.189Z" fill="#133510"/>
<path id="leaf-2_11" d="M784.5 475.5C784.5 475.5 622 396 638.375 535.783C638.375 535.783 680.921 501.062 692.5 490.5C692.5 490.5 661.879 492.697 638.375 535.783C638.375 535.783 662.281 563.355 672.269 532.729C682.256 502.102 712.86 540.243 724 508.5C735.14 476.757 784.5 516 784.5 475.5Z" fill="#133510"/>
</g>
<g id="morphcircle1">
<circle id="morphcircle1_2" cx="720.5" cy="512.5" r="91.5" fill="#133510"/>
</g>
<g id="morphcircle2">
<circle id="morphcircle2_2" cx="720.5" cy="512.5" r="162.5" fill="#133510"/>
</g>
<g id="morphcircle3">
<circle id="morphcircle3_2" cx="720" cy="512" r="443" fill="#133510"/>
</g>
<g id="final-logo">
<path id="abt-circle" d="M719.994 955.988C965.205 955.988 1163.99 757.205 1163.99 511.994C1163.99 266.783 965.205 68 719.994 68C474.783 68 276 266.783 276 511.994C276 757.205 474.783 955.988 719.994 955.988Z" fill="#CCDE8E"/>
<path id="A" d="M927.054 664.37C919.472 658.293 913.565 650.384 909.889 641.389L891.129 598.148L753.152 270.088H741.286L621.272 556.736C612.548 577.216 607.671 588.987 606.639 592.051C594.133 624.349 583.361 645.516 574.325 655.553C565.29 665.589 551.689 672.03 533.523 674.875V688.945H656.258V674.875C644.713 675.44 633.31 672.139 623.851 665.495C619.623 662.181 616.265 657.887 614.067 652.984C611.869 648.082 610.897 642.718 611.235 637.356C611.235 625.819 619.146 601.056 634.966 563.068L645.612 536.851L651.428 523.156L724.215 347.097L797.331 523.156L802.49 536.851L834.147 613.297C843.527 635.433 848.217 648.752 848.217 653.208C848.586 656.872 847.763 660.558 845.87 663.718C843.977 666.878 841.116 669.344 837.711 670.748C830.676 673.656 817.263 675.11 797.378 675.11V689.179H959.696V675.11C945.11 673.468 934.276 670.044 927.054 664.37Z" fill="#133510"/>
<path id="leaf-3_11" d="M625.446 520.295C631.637 484.558 618.505 440.566 618.505 440.566C623.321 463.495 624.9 486.985 623.195 510.352C623.144 510.594 623.011 510.811 622.819 510.966C622.627 511.122 622.387 511.207 622.14 511.207C621.892 511.207 621.653 511.122 621.461 510.966C621.269 510.811 621.136 510.594 621.085 510.352C616.911 494.782 608 482.213 607.015 463.453C605.514 440.003 613.722 404.829 613.722 404.829C615.832 415.288 634.123 443.521 634.123 443.521C657.01 487.653 628.87 517.012 625.446 520.295Z" fill="#133510"/>
<path id="leaf-2_12" d="M510.355 400.702C510.355 400.702 512.372 516.59 584.784 528.408C584.784 528.408 541.215 464.954 534.743 450.978C534.743 450.978 578.125 525.032 620.287 543.604C620.287 543.604 616.3 511.712 591.162 494.36C566.024 477.007 581.219 461.53 555.378 442.771C529.537 424.011 519.641 418.383 510.355 400.702Z" fill="#133510"/>
<g id="leaf-1_13">
<path d="M634.919 583.28C634.919 582.624 651.38 534.928 671.969 529.769C671.969 529.769 677.363 528.877 688.196 541.634C694.103 548.873 701.388 554.867 709.629 559.268L715.21 565.975C701.412 562.301 686.939 561.954 672.981 564.962C659.023 567.971 645.978 574.249 634.919 583.28Z" fill="#133510"/>
<path d="M809.759 572.025C799.143 567.465 787.496 565.845 776.039 567.335C776.039 567.335 725.013 569.399 715.07 565.975C709.885 564.039 705.192 560.98 701.328 557.017C698.936 554.672 696.639 552.328 693.871 550.264C685.99 544.03 678.619 537.177 671.829 529.769C717.181 519.123 793.767 559.315 798.128 561.567C728.905 517.059 673.705 525.642 673.705 525.642C685.571 521.655 720.604 511.197 736.268 519.357C744.509 523.933 753.553 526.879 762.907 528.034C766.855 528.343 770.715 529.36 774.304 531.035C797.284 542.338 809.759 572.025 809.759 572.025Z" fill="#133510"/>
</g>
<g id="market">
<path d="M701.703 881.982L722.479 842.118L738.191 842.962V844.65H736.315C734.653 844.423 732.961 844.535 731.343 844.979C730.921 845.193 730.551 845.497 730.26 845.87C729.968 846.243 729.761 846.675 729.655 847.136C729.145 849.701 728.863 852.306 728.811 854.921L727.545 879.121C727.37 881.667 727.37 884.221 727.545 886.766C727.577 887.299 727.718 887.82 727.96 888.296C728.202 888.772 728.54 889.193 728.951 889.533C730.39 890.31 732.007 890.698 733.641 890.658H735.892V892.3L711.505 890.987V889.345H713.334C714.92 889.561 716.534 889.367 718.024 888.783C718.462 888.513 718.841 888.158 719.139 887.739C719.437 887.32 719.648 886.846 719.759 886.344C720.243 883.76 720.509 881.14 720.557 878.512L722.245 847.042L699.217 890.471H697.435L679.426 845.073L677.878 874.009C677.663 876.694 677.663 879.391 677.878 882.076C678.079 883.602 678.83 885.002 679.989 886.015C681.527 887.257 683.41 887.994 685.382 888.126V889.814L667.139 888.83V887.141C669.042 887.215 670.924 886.708 672.532 885.687C673.885 884.873 674.862 883.559 675.252 882.029C675.79 879.277 676.088 876.484 676.143 873.681L677.315 852.201C677.509 849.657 677.509 847.101 677.315 844.557C677.276 844.071 677.13 843.601 676.887 843.179C676.643 842.757 676.309 842.395 675.909 842.118C674.338 841.454 672.642 841.134 670.937 841.18H669.531V839.538L685.101 840.336L701.703 881.982Z" fill="#133510"/>
<path d="M819.233 860.079L800.473 864.769L799.957 868.146C799.254 871.219 799.017 874.381 799.253 877.525C799.377 878.165 799.656 878.764 800.065 879.271C800.473 879.778 801 880.177 801.598 880.433C802.953 880.884 804.418 880.884 805.772 880.433L806.195 882.075L791.422 885.733L791.046 884.138C792.839 883.509 794.362 882.284 795.361 880.668C796.466 878.005 797.161 875.19 797.424 872.32C797.424 871.898 797.706 870.397 798.128 867.63L804.225 830.72L805.679 830.345L831.802 864.3L835.319 868.755C836.016 869.705 836.955 870.451 838.039 870.913C839.421 871.29 840.878 871.29 842.26 870.913L842.682 872.554L823.126 877.244L822.75 875.603C824.39 875.283 825.972 874.713 827.44 873.914C827.795 873.651 828.058 873.283 828.193 872.862C828.327 872.442 828.326 871.989 828.19 871.569C827.41 870.052 826.449 868.635 825.33 867.348L819.233 860.079ZM818.248 858.625L804.178 840.381L800.567 863.034L818.248 858.625Z" fill="#133510"/>
<path d="M941.264 825.14L929.305 831.987C923.669 830.874 918.22 828.963 913.124 826.312C910.591 825.187 908.106 824.155 905.573 823.217C903.968 822.559 902.303 822.057 900.602 821.716C899.535 821.752 898.498 822.076 897.601 822.654L895.819 823.686L901.305 833.066C902.514 835.305 903.861 837.466 905.339 839.538C905.637 839.976 906.026 840.345 906.479 840.62C906.932 840.895 907.439 841.07 907.965 841.132C909.653 841.082 911.286 840.526 912.655 839.538L914.812 838.318L915.657 839.772L894.364 851.966L893.567 850.512L894.974 849.668C896.402 849.014 897.631 847.995 898.538 846.713C898.75 846.249 898.859 845.746 898.859 845.236C898.859 844.726 898.75 844.222 898.538 843.759C897.51 841.343 896.303 839.007 894.927 836.771L882.874 815.713C881.662 813.466 880.298 811.304 878.794 809.241C878.489 808.855 878.105 808.538 877.669 808.312C877.232 808.086 876.752 807.955 876.261 807.928C874.581 808.262 872.986 808.932 871.571 809.898L870.821 810.319L869.977 808.866L876.167 804.926C880.295 802.3 883.577 800.236 886.063 798.829C889.515 796.822 893.201 795.246 897.038 794.14C899.849 793.387 902.809 793.387 905.62 794.14C908.17 794.856 910.341 796.538 911.67 798.829C912.451 800.181 912.933 801.683 913.087 803.236C913.24 804.788 913.061 806.356 912.561 807.834C911.152 811.568 908.59 814.755 905.245 816.932C910.246 817.452 915.11 818.883 919.596 821.153C923.665 823.062 927.971 824.418 932.4 825.187C935.201 825.427 938.011 824.823 940.466 823.451L941.264 825.14ZM894.974 822.232L899.946 819.137C901.471 818.206 902.873 817.088 904.119 815.807C905.093 814.847 905.831 813.675 906.277 812.383C906.649 811.105 906.745 809.762 906.558 808.444C906.225 806.786 905.606 805.199 904.729 803.754C903.346 801.058 901.029 798.957 898.21 797.844C894.025 797.292 889.792 798.422 886.439 800.987L883.765 802.675L894.974 822.232Z" fill="#133510"/>
<path d="M979.253 762.295L980.331 741.613C980.331 736.923 980.331 733.968 979.253 733.03C978.174 732.092 975.783 732.186 973.203 734.718L971.984 733.546L985.397 719.476L986.616 720.649C985.486 721.845 984.595 723.246 983.99 724.776C983.36 726.276 982.934 727.853 982.723 729.466C982.723 731.154 982.348 734.437 982.207 739.315L981.739 751.79L1008.52 750.992C1012.45 751.025 1016.37 750.711 1020.24 750.054C1022.16 749.475 1023.89 748.37 1025.21 746.865L1026.43 747.991L1007.95 767.126L1006.78 766L1007.49 765.25C1008.86 764.04 1009.96 762.554 1010.72 760.888C1010.81 760.55 1010.8 760.197 1010.71 759.86C1010.62 759.524 1010.45 759.216 1010.21 758.965C1007.41 757.972 1004.41 757.698 1001.48 758.168L981.317 758.778L980.988 763.467L987.507 769.752C989.308 771.557 991.219 773.248 993.229 774.817C993.641 775.142 994.118 775.377 994.627 775.506C995.136 775.635 995.666 775.656 996.183 775.568C997.728 775.054 999.084 774.09 1000.08 772.8L1000.78 772.097L1002 773.27L986.007 789.825L984.834 788.652L985.913 787.527C987.1 786.498 987.99 785.17 988.492 783.681C988.587 783.177 988.578 782.659 988.465 782.159C988.352 781.659 988.138 781.187 987.836 780.773C986.158 778.741 984.34 776.829 982.395 775.052L964.902 758.215C963.102 756.327 961.14 754.601 959.04 753.056C958.644 752.793 958.195 752.619 957.726 752.546C957.256 752.473 956.776 752.503 956.319 752.634C954.701 753.526 953.268 754.72 952.099 756.151L950.879 754.979L966.59 738.705L967.81 739.877L967.153 740.534C965.918 741.669 964.901 743.02 964.151 744.52C964.047 744.977 964.039 745.451 964.128 745.911C964.217 746.371 964.4 746.808 964.667 747.194C966.287 749.247 968.075 751.16 970.014 752.915L979.253 762.295Z" fill="#133510"/>
<path d="M1064.61 657.663L1065.45 656.069L1078.59 664.182L1058.84 701.702L1057.34 700.951L1057.86 700.013C1058.79 698.63 1059.28 696.993 1059.26 695.323C1059.04 694.36 1058.49 693.501 1057.71 692.884C1055.55 691.386 1053.3 690.024 1050.96 688.804L1029.53 677.502C1027.35 676.3 1025.09 675.234 1022.78 674.312C1022.31 674.121 1021.82 674.023 1021.32 674.023C1020.82 674.023 1020.33 674.121 1019.87 674.312C1018.62 675.404 1017.64 676.768 1017.01 678.299L1015.51 677.502L1032.53 645.141L1044.02 649.831L1043.18 651.379C1040.64 650.555 1037.95 650.283 1035.3 650.581C1033.61 650.872 1032.07 651.733 1030.94 653.02C1029.33 655.074 1027.95 657.291 1026.81 659.633L1023.53 665.917L1041.86 675.579L1044.4 670.889C1045.31 669.373 1045.95 667.705 1046.27 665.964C1046.35 665.509 1046.33 665.042 1046.21 664.596C1046.09 664.15 1045.87 663.737 1045.57 663.385C1044.35 662.264 1042.95 661.345 1041.44 660.665L1042.24 659.117L1057.25 666.996L1056.4 668.544C1054.81 667.564 1053.04 666.91 1051.2 666.621C1050.72 666.604 1050.24 666.683 1049.78 666.852C1049.33 667.021 1048.92 667.277 1048.57 667.606C1047.58 668.818 1046.73 670.14 1046.04 671.545L1043.41 676.517L1053.78 681.957C1056.69 683.924 1060.01 685.222 1063.48 685.756C1064.75 685.756 1066.2 683.927 1067.8 681.066L1069.58 677.736C1070.67 675.751 1071.42 673.594 1071.78 671.358C1071.92 669.178 1071.45 667.003 1070.42 665.073C1069.03 662.223 1067.05 659.698 1064.61 657.663Z" fill="#133510"/>
<path d="M1062.69 598.992L1062.36 600.681L1050.77 598.101L1060.15 549.373L1071.88 551.437L1071.6 553.031C1069.09 552.859 1066.57 553.194 1064.19 554.016C1062.84 554.498 1061.7 555.424 1060.95 556.642C1060.18 558.478 1059.63 560.398 1059.31 562.364L1057.71 570.431L1091.95 577.231C1094.44 577.791 1096.96 578.198 1099.5 578.45C1100.04 578.498 1100.57 578.436 1101.08 578.266C1101.59 578.097 1102.06 577.824 1102.46 577.466C1103.42 576.177 1104.02 574.655 1104.19 573.057L1104.71 570.571L1106.35 570.9L1101.38 595.944L1099.74 595.616L1100.25 593.036C1100.66 591.5 1100.66 589.883 1100.25 588.346C1100.05 587.877 1099.75 587.454 1099.38 587.099C1099.01 586.745 1098.57 586.468 1098.1 586.283C1095.6 585.449 1093.05 584.821 1090.45 584.407L1056.17 577.606L1054.71 585.063C1054.18 587.228 1053.9 589.447 1053.87 591.676C1054.11 593.1 1054.84 594.395 1055.93 595.334C1057.92 596.993 1060.21 598.237 1062.69 598.992Z" fill="#133510"/>
</g>
<g id="food">
<path d="M386.823 577.607L374.629 579.483V577.701C376.961 577.177 379.133 576.1 380.96 574.558C382.347 573.52 383.352 572.052 383.821 570.384C384.113 568.127 384.113 565.841 383.821 563.584L382.649 553.641L361.825 556.127L362.388 560.817C362.399 562.994 363.199 565.093 364.639 566.726C366.53 567.754 368.732 568.054 370.83 567.571L371.065 569.399L353.759 571.463V569.587C355.376 569.427 356.958 569.016 358.449 568.368C359.456 567.928 360.26 567.124 360.7 566.117C361.053 564.431 361.053 562.69 360.7 561.005L360.137 556.315L347.943 557.768C345.404 558.022 342.882 558.43 340.392 558.988C339.873 559.102 339.384 559.323 338.955 559.639C338.527 559.954 338.17 560.355 337.907 560.817C337.404 562.329 337.307 563.946 337.625 565.507V567.195H335.937L333.123 543.746H334.811V545.293C334.848 546.942 335.299 548.555 336.125 549.983C336.461 550.369 336.87 550.684 337.329 550.909C337.788 551.135 338.287 551.266 338.798 551.296C341.452 551.3 344.102 551.096 346.724 550.687L370.783 547.826C373.329 547.603 375.854 547.18 378.334 546.559C378.797 546.442 379.229 546.226 379.601 545.927C379.974 545.627 380.277 545.251 380.491 544.824C380.851 543.139 380.851 541.397 380.491 539.712V538.821H382.133L386.823 577.607Z" fill="#133510"/>
<path d="M375.614 631.025C378.707 629.458 382.112 628.606 385.579 628.533C389.045 628.46 392.484 629.167 395.64 630.603C402.178 633.664 407.343 639.046 410.132 645.704C413.374 652.234 414.108 659.727 412.195 666.762C411.19 670.139 409.437 673.246 407.066 675.852C404.695 678.459 401.768 680.497 398.501 681.817C395.397 683.38 391.991 684.253 388.518 684.374C385.045 684.496 381.586 683.863 378.381 682.52C371.827 679.259 366.593 673.846 363.553 667.187C360.514 660.528 359.854 653.026 361.685 645.939C362.783 642.59 364.598 639.521 367.004 636.945C369.41 634.369 372.348 632.349 375.614 631.025ZM378.944 638.998C373.041 641.238 368.078 645.423 364.874 650.863C363.768 653.399 363.257 656.154 363.379 658.918C363.501 661.681 364.253 664.38 365.577 666.809C366.539 669.21 368.042 671.357 369.97 673.082C371.898 674.807 374.199 676.063 376.692 676.752C382.93 678 389.409 677.004 394.983 673.938C400.863 671.684 405.818 667.522 409.053 662.119C410.048 659.645 410.532 656.996 410.478 654.331C410.423 651.665 409.831 649.038 408.736 646.607C407.641 644.176 406.066 641.991 404.105 640.184C402.145 638.377 399.84 636.984 397.328 636.09C391.048 634.884 384.545 635.912 378.944 638.998Z" fill="#133510"/>
<path d="M429.736 727.684C432.174 725.249 435.12 723.381 438.362 722.214C441.604 721.047 445.064 720.608 448.495 720.93C455.748 721.687 462.448 725.154 467.255 730.638C472.383 735.793 475.438 742.654 475.838 749.914C475.983 753.454 475.324 756.981 473.911 760.231C472.498 763.48 470.366 766.367 467.677 768.674C465.227 771.112 462.289 773.003 459.056 774.223C455.822 775.444 452.367 775.966 448.917 775.755C441.67 774.733 434.993 771.256 430 765.904C425.006 760.553 422 753.65 421.482 746.35C421.418 742.825 422.123 739.33 423.549 736.106C424.974 732.882 427.086 730.008 429.736 727.684ZM435.457 734.156C430.502 738.18 427.062 743.77 425.702 750.008C425.452 752.759 425.838 755.53 426.83 758.108C427.822 760.686 429.394 763.001 431.424 764.875C433.1 766.845 435.206 768.404 437.581 769.429C439.956 770.453 442.535 770.917 445.119 770.784C451.431 769.971 457.257 766.967 461.58 762.295C466.395 758.271 469.702 752.732 470.96 746.584C471.273 743.894 470.958 741.168 470.038 738.621C469.118 736.073 467.62 733.774 465.66 731.905C463.955 729.85 461.798 728.218 459.357 727.136C456.916 726.054 454.258 725.551 451.591 725.667C445.4 726.568 439.706 729.564 435.457 734.156Z" fill="#133510"/>
<path d="M521.471 780.586L528.928 784.432C535.165 787.668 539.387 789.872 541.497 791.091C546.931 793.895 551.624 797.945 555.192 802.91C557.628 806.663 558.9 811.052 558.849 815.526C558.643 820.139 557.272 824.624 554.863 828.563C553.213 831.528 551.036 834.167 548.438 836.349C546.159 838.252 543.507 839.658 540.653 840.476C537.978 841.193 535.184 841.352 532.445 840.945C529.892 840.599 527.399 839.905 525.035 838.881C522.925 837.943 519.97 836.396 516.312 834.191L496.661 822.795L497.506 821.341L499.335 822.42C500.632 823.308 502.132 823.857 503.696 824.014C504.204 823.98 504.699 823.842 505.151 823.608C505.603 823.374 506.002 823.049 506.323 822.654C507.926 820.556 509.354 818.328 510.591 815.995L522.55 795.359C523.893 793.185 525.069 790.912 526.067 788.559C526.269 788.117 526.374 787.637 526.374 787.151C526.374 786.666 526.269 786.186 526.067 785.745C524.94 784.469 523.569 783.432 522.034 782.696L520.72 781.946L521.471 780.586ZM534.603 789.356L518.047 817.964C515.609 822.185 514.045 824.952 513.357 826.265C513.078 826.793 512.932 827.38 512.932 827.977C512.932 828.574 513.078 829.162 513.357 829.689C514.615 831.28 516.219 832.564 518.047 833.441C521.222 835.407 524.738 836.759 528.412 837.427C531.845 837.73 535.281 836.871 538.167 834.989C542.075 832.469 545.298 829.021 547.547 824.952C549.493 821.686 550.888 818.12 551.674 814.4C552.413 811.317 552.413 808.103 551.674 805.02C550.993 802.37 549.654 799.934 547.781 797.939C545.403 795.584 542.703 793.579 539.762 791.982C538.073 791.138 536.338 790.247 534.603 789.356Z" fill="#133510"/>
</g>
<g id="Albertsons">
<path d="M392.731 381.099L385.602 399.155L388.135 401.594C390.322 403.979 392.832 406.047 395.592 407.738C396.187 408.042 396.846 408.201 397.515 408.201C398.183 408.201 398.843 408.042 399.438 407.738C400.64 406.941 401.546 405.771 402.017 404.408L403.612 405.065L398.031 419.134L396.436 418.478C396.977 416.632 396.843 414.654 396.061 412.897C394.456 410.406 392.479 408.176 390.198 406.284L386.822 403.001L359.245 376.128L359.761 374.721L403.846 373.783H409.709C410.913 373.779 412.094 373.455 413.132 372.845C414.322 372.04 415.264 370.919 415.852 369.609L417.447 370.265L410.037 389.025L408.442 388.368C409.138 386.889 409.582 385.304 409.756 383.679C409.757 383.224 409.605 382.782 409.324 382.424C409.044 382.067 408.65 381.815 408.208 381.709C406.48 381.487 404.73 381.487 403.002 381.709L392.731 381.099ZM390.902 381.099L367.452 381.521L384.43 397.936L390.902 381.099Z" fill="#133510"/>
<path d="M453.982 288.098L465.754 297.477L439.49 332.136L438.131 331.104L439.022 329.885C440.059 328.707 440.785 327.288 441.132 325.758C441.152 324.701 440.766 323.677 440.053 322.897C438.071 321.011 435.955 319.271 433.722 317.691L413.743 302.543C411.678 300.906 409.499 299.417 407.224 298.087C406.802 297.82 406.324 297.655 405.827 297.606C405.33 297.557 404.829 297.625 404.363 297.806C402.899 298.717 401.663 299.953 400.752 301.417L400.095 302.308L398.688 301.229L413.508 281.672L414.915 282.704L413.555 284.486C412.428 285.748 411.58 287.234 411.07 288.848C411.014 289.324 411.065 289.807 411.22 290.261C411.374 290.716 411.627 291.13 411.961 291.474C413.881 293.373 415.952 295.114 418.151 296.68L439.537 312.86C441.35 314.306 443.262 315.622 445.259 316.8C445.685 316.997 446.15 317.1 446.619 317.1C447.089 317.1 447.553 316.997 447.979 316.8C449.611 315.723 451.001 314.317 452.059 312.673L454.404 309.577C455.921 307.756 457.125 305.696 457.969 303.481C458.428 301.618 458.33 299.661 457.687 297.853C456.612 294.822 455.026 291.999 452.997 289.504L453.982 288.098Z" fill="#133510"/>
<path d="M500.46 228.489C504.149 225.59 508.668 223.947 513.357 223.799C515.112 223.862 516.831 224.316 518.389 225.128C519.946 225.939 521.304 227.087 522.362 228.489C524.261 230.849 525.259 233.808 525.176 236.837C525.089 239.805 524.016 242.66 522.127 244.95C519.503 247.993 516.546 250.73 513.31 253.111L497.364 265.352L496.333 263.991L497.88 262.772C499.199 261.928 500.268 260.746 500.976 259.348C501.141 258.854 501.197 258.33 501.14 257.812C501.083 257.294 500.915 256.794 500.647 256.347C499.27 253.987 497.702 251.743 495.957 249.64L480.762 229.896C479.189 227.715 477.449 225.661 475.556 223.752C475.206 223.391 474.781 223.111 474.311 222.933C473.841 222.755 473.337 222.682 472.836 222.72C471.194 223.22 469.687 224.086 468.427 225.253L467.677 225.862L466.599 224.455L473.117 219.156L480.575 213.059C491.643 204.523 499.631 203.445 504.54 209.823C505.513 210.993 506.201 212.373 506.551 213.854C506.901 215.335 506.903 216.877 506.557 218.359C505.531 222.247 503.416 225.762 500.46 228.489ZM492.675 233.554L493.988 232.616C497.322 230.565 499.88 227.463 501.257 223.799C501.443 222.286 501.296 220.751 500.826 219.3C500.356 217.85 499.575 216.52 498.537 215.404C497.331 213.656 495.723 212.225 493.847 211.23C492.378 210.567 490.741 210.371 489.157 210.667C486.56 211.467 484.162 212.81 482.122 214.607C481.325 215.216 480.575 215.873 479.777 216.576L492.675 233.554ZM493.847 235.055L500.788 244.059C503.743 247.905 505.478 250.297 506.65 251.235C507.408 252.068 508.44 252.601 509.558 252.736C511.152 252.593 512.645 251.895 513.779 250.766C515.16 249.869 516.343 248.699 517.255 247.328C518.166 245.957 518.787 244.414 519.079 242.793C519.189 241.089 518.956 239.38 518.392 237.769C517.828 236.157 516.945 234.676 515.796 233.413C514.87 231.965 513.638 230.737 512.189 229.813C510.739 228.89 509.105 228.294 507.401 228.067C503.164 228.391 499.162 230.143 496.051 233.038L493.847 235.055Z" fill="#133510"/>
<path d="M604.857 185.154L606.545 184.45L611.564 199.599L572.402 215.732L571.746 214.137L572.731 213.762C575.076 212.778 576.436 211.839 576.858 210.901C577.296 209.998 577.411 208.972 577.186 207.994C576.45 205.428 575.525 202.92 574.419 200.49L565.04 177.04C564.107 174.646 563.026 172.312 561.803 170.052C561.572 169.593 561.242 169.19 560.837 168.874C560.431 168.558 559.96 168.335 559.458 168.223C557.826 168.254 556.223 168.655 554.768 169.396L553.831 168.223L587.645 154.153L593.648 165.456L592.007 166.16C590.554 163.826 588.638 161.815 586.378 160.25C584.884 159.357 583.133 158.994 581.407 159.219C578.857 159.741 576.372 160.543 573.997 161.611L567.431 164.331L575.639 184.216L580.657 182.152C582.366 181.568 583.955 180.678 585.347 179.526C585.699 179.207 585.978 178.815 586.164 178.378C586.35 177.941 586.439 177.468 586.425 176.993C586.127 175.373 585.622 173.797 584.925 172.303L586.566 171.647L593.226 187.827L591.585 188.531C590.997 186.674 590.022 184.964 588.723 183.512C588.38 183.172 587.969 182.908 587.516 182.739C587.063 182.569 586.58 182.497 586.097 182.527C584.476 182.775 582.897 183.249 581.407 183.934L576.202 186.045L580.891 197.254C581.948 200.702 583.704 203.895 586.05 206.634C587.176 207.29 589.286 207.009 592.475 205.696L595.993 204.242C598.113 203.45 600.068 202.273 601.761 200.771C603.25 199.133 604.271 197.124 604.716 194.956C605.398 191.729 605.446 188.399 604.857 185.154Z" fill="#133510"/>
<path d="M711.084 181.214L697.389 182.715C692.624 179.291 688.376 175.2 684.773 170.568C682.897 168.458 681.021 166.441 679.051 164.518C677.845 163.227 676.51 162.064 675.065 161.047C674.097 160.603 673.015 160.472 671.969 160.673L669.906 160.907L671.172 172.21C671.386 174.825 671.762 177.426 672.298 179.995C672.41 180.533 672.63 181.044 672.944 181.495C673.259 181.946 673.661 182.329 674.127 182.621C675.624 183.186 677.25 183.316 678.817 182.997L681.256 182.715V184.45L657.009 186.983V185.248H658.65C660.306 185.261 661.932 184.806 663.34 183.934C663.733 183.595 664.053 183.178 664.279 182.711C664.505 182.243 664.632 181.733 664.653 181.214C664.657 178.484 664.469 175.758 664.091 173.054L661.371 148.104C661.129 145.47 660.722 142.854 660.151 140.271C660.035 139.789 659.815 139.339 659.507 138.95C659.199 138.561 658.811 138.244 658.369 138.02C656.686 137.643 654.94 137.643 653.257 138.02H652.413V136.332L659.635 135.112C664.325 134.362 668.312 133.846 671.172 133.518C675.14 132.969 679.164 132.969 683.131 133.518C686.038 133.98 688.763 135.229 691.011 137.129C693.092 138.929 694.387 141.47 694.622 144.211C694.822 145.804 694.683 147.421 694.214 148.957C693.745 150.493 692.957 151.912 691.901 153.122C689.147 156.037 685.531 157.993 681.584 158.703C686.003 161.268 689.9 164.641 693.074 168.645C696.033 172.211 699.456 175.366 703.251 178.025C705.725 179.39 708.552 179.978 711.365 179.714L711.084 181.214ZM669.718 159.172L675.534 158.328C677.288 158.064 679.004 157.591 680.646 156.921C681.936 156.385 683.089 155.567 684.023 154.529C684.882 153.475 685.491 152.24 685.805 150.917C686.121 149.181 686.121 147.401 685.805 145.665C685.644 142.552 684.361 139.603 682.194 137.363C680.427 136.227 678.445 135.466 676.372 135.127C674.298 134.788 672.178 134.879 670.141 135.394C669.25 135.394 668.171 135.675 666.998 135.91L669.718 159.172Z" fill="#133510"/>
<path d="M755.497 144.352H753.762L755.966 132.205L805.023 139.99L803.381 152.184L801.74 151.903C801.844 149.334 801.446 146.768 800.567 144.352C800.034 142.979 799.039 141.834 797.753 141.116C795.896 140.401 793.959 139.913 791.985 139.662L783.871 138.396L778.243 174.086C777.769 176.676 777.44 179.291 777.258 181.918C777.228 182.458 777.308 182.998 777.494 183.506C777.679 184.014 777.966 184.479 778.337 184.873C779.695 185.889 781.332 186.462 783.027 186.514L785.466 186.936V188.625L760.234 184.638L760.515 182.95L763.142 183.325C764.673 183.773 766.3 183.773 767.832 183.325C768.309 183.103 768.734 182.783 769.081 182.388C769.429 181.992 769.69 181.529 769.849 181.027C770.579 178.394 771.127 175.715 771.49 173.007L777.118 137.317L769.614 136.144C767.438 135.704 765.219 135.515 763.001 135.582C761.554 135.874 760.267 136.693 759.39 137.88C757.706 139.78 756.386 141.974 755.497 144.352Z" fill="#133510"/>
<path d="M843.292 204.805L850.092 189.797L851.781 190.548C849.342 201.241 851.78 208.181 859.05 211.464C860.41 212.182 861.903 212.61 863.437 212.723C864.97 212.836 866.51 212.631 867.961 212.121C869.163 211.678 870.267 211.004 871.208 210.134C872.15 209.265 872.911 208.219 873.448 207.056C873.977 205.975 874.275 204.795 874.324 203.592C874.372 202.389 874.17 201.188 873.729 200.068C872.14 196.747 869.982 193.732 867.351 191.157C864.954 188.661 862.759 185.979 860.785 183.137C859.451 181.156 858.644 178.868 858.439 176.489C858.234 174.109 858.637 171.717 859.612 169.537C860.268 167.971 861.246 166.56 862.482 165.396C863.718 164.233 865.185 163.343 866.788 162.783C870.159 161.629 873.849 161.847 877.059 163.393C878.977 164.244 880.725 165.435 882.218 166.91C883.891 168.727 885.112 170.912 885.782 173.289C887.3 172.599 888.563 171.451 889.394 170.006L890.941 170.709L885.407 182.903L883.906 182.246C884.696 178.74 884.402 175.076 883.062 171.741C881.874 168.831 879.605 166.494 876.731 165.222C875.652 164.62 874.455 164.262 873.224 164.172C871.992 164.083 870.756 164.265 869.602 164.706C867.773 165.514 866.304 166.966 865.475 168.786C865 169.815 864.754 170.936 864.754 172.069C864.754 173.203 865 174.323 865.475 175.352C867.135 178.669 869.303 181.707 871.9 184.357C874.317 186.997 876.588 189.768 878.701 192.658C880.036 194.573 880.845 196.805 881.046 199.13C881.253 201.677 880.784 204.233 879.685 206.54C878.937 208.384 877.806 210.048 876.367 211.422C874.928 212.796 873.213 213.85 871.337 214.513C867.227 215.775 862.787 215.388 858.956 213.434C856.504 212.378 854.321 210.784 852.567 208.771C850.814 206.758 849.536 204.377 848.826 201.803C847.317 202.766 846.036 204.046 845.074 205.555L843.292 204.805Z" fill="#133510"/>
<path d="M933.244 224.503C935.425 221.689 938.198 219.39 941.367 217.769C944.537 216.148 948.024 215.244 951.582 215.123C958.858 214.943 965.924 217.562 971.326 222.439C977.053 227.01 980.839 233.577 981.926 240.823C982.399 244.414 982.068 248.065 980.956 251.513C979.845 254.96 977.982 258.117 975.5 260.755C973.308 263.571 970.545 265.891 967.393 267.564C964.241 269.238 960.77 270.225 957.21 270.464C949.843 270.432 942.725 267.798 937.112 263.026C931.5 258.255 927.754 251.653 926.537 244.388C926.187 240.788 926.604 237.154 927.76 233.727C928.916 230.299 930.785 227.155 933.244 224.503ZM939.669 230.318C935.047 234.992 932.138 241.09 931.415 247.624C931.415 250.407 932.068 253.151 933.323 255.636C934.577 258.12 936.398 260.276 938.638 261.928C940.558 263.693 942.863 264.986 945.371 265.703C947.879 266.419 950.52 266.54 953.083 266.055C959.197 263.907 964.629 260.167 968.817 255.221C973.004 250.275 975.797 244.301 976.907 237.916C976.862 235.216 976.25 232.555 975.108 230.108C973.967 227.661 972.323 225.481 970.283 223.711C968.244 221.942 965.854 220.621 963.27 219.836C960.686 219.051 957.966 218.82 955.287 219.156C948.961 220.988 943.451 224.926 939.669 230.318Z" fill="#133510"/>
<path d="M1013.16 355.82L1034.55 299.541L1004.48 318.301C1002.79 319.265 1001.21 320.431 999.794 321.772C999.066 322.772 998.763 324.019 998.951 325.242C999.194 327.326 999.969 329.313 1001.2 331.011L999.701 331.949L989.571 315.769L991.024 314.831C992.084 316.464 993.494 317.842 995.151 318.864C996.083 319.503 997.227 319.755 998.341 319.568C1000.15 318.804 1001.88 317.861 1003.5 316.753L1026.48 302.309C1028.77 300.981 1030.91 299.408 1032.86 297.619C1033.26 297.259 1033.58 296.818 1033.8 296.325C1034.02 295.831 1034.13 295.297 1034.12 294.758C1033.61 293.074 1032.82 291.489 1031.78 290.068L1033.23 289.13L1041.3 301.933L1023.48 348.833L1049.41 332.605C1050.85 331.833 1052.09 330.762 1053.07 329.463C1053.63 328.359 1053.73 327.077 1053.35 325.899C1052.96 324.22 1052.26 322.63 1051.29 321.209L1052.74 320.271L1062.64 335.982L1061.14 336.92C1060.15 335.458 1058.87 334.213 1057.39 333.262C1056.42 332.614 1055.25 332.347 1054.1 332.512C1052.6 332.952 1051.17 333.633 1049.88 334.528L1014.05 357.04L1013.16 355.82Z" fill="#133510"/>
<path d="M1037.88 406.847L1053.68 402.157L1054.2 403.939C1044.54 409.035 1040.85 415.429 1043.13 423.12C1043.48 424.606 1044.13 426.004 1045.05 427.23C1045.96 428.455 1047.11 429.483 1048.43 430.249C1049.55 430.881 1050.79 431.284 1052.07 431.437C1053.35 431.59 1054.65 431.489 1055.89 431.14C1057.04 430.821 1058.12 430.27 1059.05 429.52C1059.99 428.77 1060.76 427.837 1061.33 426.779C1062.81 423.394 1063.68 419.774 1063.91 416.086C1064.25 412.654 1064.84 409.253 1065.69 405.909C1066.35 403.582 1067.57 401.455 1069.25 399.718C1070.9 398.034 1072.95 396.792 1075.21 396.107C1076.83 395.592 1078.55 395.417 1080.24 395.595C1081.93 395.773 1083.57 396.298 1085.06 397.138C1086.59 398.02 1087.93 399.201 1088.99 400.611C1090.05 402.021 1090.82 403.632 1091.25 405.346C1091.86 407.332 1092.12 409.413 1092 411.49C1091.7 413.953 1090.83 416.313 1089.47 418.384C1090.93 419.046 1092.57 419.258 1094.15 418.993L1094.62 420.588L1081.77 424.387L1081.3 422.792C1084.46 421.115 1087.03 418.513 1088.67 415.335C1090.11 412.54 1090.41 409.297 1089.51 406.284C1089.26 405.075 1088.75 403.936 1088.02 402.947C1087.28 401.958 1086.33 401.144 1085.24 400.562C1083.44 399.679 1081.36 399.495 1079.43 400.046C1078.34 400.359 1077.34 400.903 1076.48 401.639C1075.62 402.375 1074.93 403.288 1074.46 404.314C1073.02 407.749 1072.13 411.389 1071.83 415.101C1071.17 419.822 1070.57 423.34 1070 425.653C1069.44 427.921 1068.27 429.994 1066.63 431.656C1064.83 433.496 1062.58 434.824 1060.11 435.502C1058.22 436.131 1056.22 436.351 1054.24 436.149C1052.25 435.947 1050.34 435.327 1048.62 434.329C1044.98 432.051 1042.38 428.453 1041.35 424.293C1040.55 421.742 1040.33 419.044 1040.71 416.398C1041.09 413.752 1042.06 411.225 1043.55 409.004C1041.83 408.522 1040.03 408.394 1038.25 408.629L1037.88 406.847Z" fill="#133510"/>
</g>
</g>
</g>
<defs>
<clipPath id="clip0_2_14">
<rect width="1440" height="1024" fill="white"/>
</clipPath>
</defs>
</svg>
